<svg width="1264" height="380" viewBox="0 0 1264 380" fill="none" xmlns="http://www.w3.org/2000/svg">
<path fill-rule="evenodd" clip-rule="evenodd" d="M0 380H1129.56V284.188C1129.56 232.556 1084.53 190.704 1028.97 190.704H0.892035L0 380ZM173.015 334.174C175.274 329.599 176.404 324.635 176.404 319.296H176.389V209.569H143.55V319.296C143.55 322.721 142.42 325.371 140.16 327.257C137.9 329.144 134.778 330.08 130.764 330.08H39.6784V306.933H11.3284V356.759H130.764C137.365 356.759 143.475 355.823 149.065 353.936C154.67 352.05 159.486 349.441 163.545 346.082C167.603 342.724 170.755 338.764 173.015 334.174ZM390.093 356.759H357.506V320.634H242.96V356.759H210.373V283.158C210.373 272.414 212.633 262.526 217.138 253.495C221.657 244.464 227.916 236.703 235.944 230.187C243.956 223.685 253.441 218.627 264.398 215.002C275.339 211.376 287.292 209.556 300.24 209.556H373.68C375.94 209.556 378.066 209.904 380.073 210.586C382.08 211.269 383.834 212.232 385.335 213.463C386.837 214.694 388.011 216.125 388.844 217.771C389.676 219.417 390.093 221.156 390.093 223.003V356.746V356.759ZM242.96 293.942H357.506V236.248H300.226C299.23 236.248 297.118 236.369 293.892 236.61C290.667 236.851 286.95 237.453 282.743 238.403C278.521 239.366 274.076 240.838 269.393 242.818C264.71 244.811 260.414 247.541 256.489 251.033C252.564 254.525 249.323 258.887 246.781 264.118C244.224 269.35 242.96 275.705 242.96 283.158V293.942ZM604.272 356.759H637.111H637.156V220.955C637.156 217.878 636.026 215.135 633.767 212.74C631.507 210.345 628.623 208.726 625.114 207.91C621.427 207.147 617.904 207.321 614.515 208.418C611.14 209.516 608.479 211.362 606.561 213.958L532.363 319.577L458.165 213.958C457.244 212.66 456.114 211.549 454.776 210.626C453.438 209.703 451.966 208.98 450.331 208.472C448.71 207.964 447.016 207.656 445.261 207.549C443.507 207.455 441.753 207.576 439.999 207.91C436.401 208.74 433.502 210.345 431.287 212.74C429.057 215.135 427.957 217.878 427.957 220.955V356.759H460.544V269.109L518.567 352.357C519.994 354.471 521.927 356.077 524.395 357.174C526.848 358.271 529.435 358.82 532.348 358.82C535.262 358.82 537.998 358.271 540.555 357.174C543.097 356.09 545.074 354.471 546.501 352.357L604.272 269.109V356.759ZM884.131 356.759H851.291V269.109L793.52 352.357C792.093 354.471 790.116 356.09 787.574 357.174C785.017 358.271 782.281 358.82 779.368 358.82C776.454 358.82 773.867 358.271 771.414 357.174C768.946 356.077 767.014 354.471 765.586 352.357L707.563 269.109V356.759H674.976V220.955C674.976 217.878 676.076 215.135 678.306 212.74C680.521 210.345 683.42 208.74 687.018 207.91C688.772 207.576 690.526 207.455 692.281 207.549C694.035 207.656 695.73 207.964 697.35 208.472C698.985 208.98 700.457 209.703 701.795 210.626C703.133 211.549 704.263 212.66 705.185 213.958L779.383 319.577L853.58 213.958C855.498 211.362 858.159 209.516 861.534 208.418C864.923 207.321 868.447 207.147 872.134 207.91C875.642 208.726 878.526 210.345 880.786 212.74C883.045 215.135 884.175 217.878 884.175 220.955V356.759H884.131ZM919.854 217.784C919.022 219.417 918.606 221.17 918.606 223.016V223.029V356.773H951.193V320.648H1065.74V356.773H1098.32V283.171C1098.32 272.427 1096.07 262.54 1091.56 253.508C1087.04 244.477 1080.77 236.703 1072.75 230.201C1064.73 223.698 1055.24 218.641 1044.3 215.015C1033.36 211.389 1021.41 209.569 1008.46 209.569H935.018C932.758 209.569 930.633 209.917 928.626 210.6C926.619 211.282 924.864 212.245 923.363 213.476C921.861 214.707 920.687 216.139 919.854 217.784ZM1061.92 264.118C1064.46 269.35 1065.74 275.705 1065.74 283.158V293.942H951.193V236.248H1008.47C1009.48 236.248 1011.59 236.369 1014.81 236.61C1018.02 236.851 1021.73 237.453 1025.96 238.403C1030.18 239.366 1034.62 240.838 1039.31 242.818C1043.99 244.811 1048.28 247.541 1052.21 251.033C1056.13 254.525 1059.38 258.887 1061.92 264.118Z" fill="white"/>
<path d="M51.3222 85.5248H136.859V68.4194H0V153.946H51.3222V85.5248Z" fill="white"/>
<path d="M205.288 119.736H290.825V68.4194H153.966V153.946H290.825V136.841H205.288V119.736ZM205.288 85.5248H239.503V102.63H205.288V85.5248Z" fill="white"/>
<path d="M359.254 85.5248H444.791V68.4194H307.932V153.946H444.791V136.841H359.254V85.5248Z" fill="white"/>
<path d="M461.897 85.5248H547.434V102.63H461.897V153.946H598.756V68.4194H461.897V85.5248ZM513.219 119.736H547.434V136.841H513.219V119.736Z" fill="white"/>
<path d="M615.865 153.949H667.187V0H615.865V153.949Z" fill="white"/>
<path d="M684.293 153.949H821.153V68.4217H735.616V0H684.293V153.949ZM735.616 85.5271H769.83V136.843H735.616V85.5271Z" fill="white"/>
<path d="M838.26 153.946H975.119V68.4194H838.26V153.946ZM889.582 85.5248H923.797V136.841H889.582V85.5248Z" fill="white"/>
<path d="M1009.33 136.841H992.225V153.946H1043.55V136.841H1077.76V153.946H1129.08V136.841H1111.98V119.736H1094.87V102.63H1111.98V85.5248H1129.08V68.4194H1077.76V85.5248H1043.55V68.4194H992.225V85.5248H1009.33V102.63H1026.44V119.736H1009.33V136.841Z" fill="white"/>
<path d="M1162.75 105.234L1162.75 69.49L1263.77 69.49L1263.77 164.806L1218.87 164.806L1218.87 152.889L1207.65 152.889L1207.65 164.806L1162.75 164.806L1162.75 129.062L1207.65 129.062L1207.65 105.234L1162.75 105.234ZM1218.87 105.234L1218.87 129.062L1252.54 129.062L1252.54 105.234L1218.87 105.234Z" fill="#ED1C24"/>
<path d="M1218.87 224.378L1218.87 272.032L1162.75 272.032L1162.75 176.716L1263.77 176.716L1263.77 272.032L1230.12 272.032L1230.12 236.288L1252.54 236.288L1252.54 212.461L1173.98 212.461L1173.98 236.288L1207.65 236.288L1207.65 224.378L1218.87 224.378Z" fill="#39B54A"/>
<path d="M1207.65 367.341L1207.65 379.258L1162.75 379.258L1162.75 283.942L1263.77 283.942L1263.77 379.258L1218.87 379.258L1218.87 367.341L1207.65 367.341ZM1218.87 319.687L1218.87 343.514L1252.54 343.514L1252.54 319.687L1218.87 319.687ZM1207.65 343.514L1207.65 319.687L1173.98 319.687L1173.98 343.514L1207.65 343.514Z" fill="#0071BC"/>
</svg>
