<svg fill="none" height="322" viewBox="0 0 1012 322" width="1012" xmlns="http://www.w3.org/2000/svg" xmlns:xlink="http://www.w3.org/1999/xlink"><linearGradient id="a"><stop offset="0" stop-color="#d3d3d3"/><stop offset=".53977" stop-color="#ededed"/><stop offset="1" stop-color="#4d4d4d"/></linearGradient><radialGradient id="b" cx="0" cy="0" gradientTransform="matrix(122.42085853 -20.61228111 5.5148445 32.7538711 292.967 21.2804)" gradientUnits="userSpaceOnUse" r="1" xlink:href="#a"/><linearGradient id="c"><stop offset="0" stop-color="#dcdcd9"/><stop offset=".655978" stop-color="#f0f0ee"/><stop offset="1" stop-color="#f3f3ef"/></linearGradient><linearGradient id="d" gradientUnits="userSpaceOnUse" x1="223.591" x2="362.343" xlink:href="#c" y1="21.2804" y2="21.2804"/><radialGradient id="e" cx="0" cy="0" gradientTransform="matrix(-122.42099523 -20.61146918 5.51462727 -32.75390768 631.509 21.2804)" gradientUnits="userSpaceOnUse" r="1" xlink:href="#a"/><linearGradient id="f" gradientUnits="userSpaceOnUse" x1="700.885" x2="562.132" xlink:href="#c" y1="21.2804" y2="21.2804"/><linearGradient id="g" gradientUnits="userSpaceOnUse" x1="462.122" x2="470.385" y1="264.755" y2="-18.0269"><stop offset="0" stop-color="#8d8d8c"/><stop offset=".25417" stop-color="#f6f6f4"/><stop offset="1" stop-color="#f3f3ef"/></linearGradient><linearGradient id="h" gradientUnits="userSpaceOnUse" x1="462.122" x2="470.385" y1="264.755" y2="-18.0269"><stop offset="0" stop-color="#5b5b5a"/><stop offset=".319444" stop-color="#5d5d5d"/><stop offset="1" stop-color="#f9f9f9"/></linearGradient><radialGradient id="i" cx="294.396" cy="126.683" gradientUnits="userSpaceOnUse" r="73.8127"><stop offset="0"/><stop offset=".388889" stop-color="#dcdcdc"/><stop offset="1" stop-color="#eeeee9"/></radialGradient><radialGradient id="j" cx="294.396" cy="126.683" gradientUnits="userSpaceOnUse" r="74.0456"><stop offset="0" stop-color="#f3f3f1"/><stop offset=".94" stop-color="#7f7f7e"/><stop offset="1" stop-color="#e6e6e3"/></radialGradient><radialGradient id="k" cx="621.47" cy="127.347" gradientUnits="userSpaceOnUse" r="102.558"><stop offset="0" stop-color="#2a2d2e"/><stop offset=".98" stop-color="#d7d6d7"/><stop offset=".99"/><stop offset="1" stop-color="#859094"/></radialGradient><linearGradient id="l" gradientUnits="userSpaceOnUse" x1="577.327" x2="577.327" y1="146.129" y2="97.7824"><stop offset="0" stop-color="#00dea5"/><stop offset="1" stop-color="#00f8b9"/></linearGradient><linearGradient id="m"><stop offset="0" stop-color="#899194"/><stop offset="1" stop-color="#515759"/></linearGradient><radialGradient id="n" cx="0" cy="0" gradientTransform="matrix(27.06620896 -27.22578088 2.94040334 2.92316946 421.319 146.689)" gradientUnits="userSpaceOnUse" r="1" xlink:href="#m"/><linearGradient id="o"><stop offset="0" stop-color="#303638"/><stop offset="1" stop-color="#424a4f"/></linearGradient><radialGradient id="p" cx="0" cy="0" gradientTransform="matrix(11.0376 0 0 11.3468 294.078 95.9444)" gradientUnits="userSpaceOnUse" r="1" xlink:href="#o"/><radialGradient id="q" cx="0" cy="0" gradientTransform="matrix(11.0376 0 0 11.3468 294.078 156.6)" gradientUnits="userSpaceOnUse" r="1" xlink:href="#o"/><radialGradient id="r" cx="0" cy="0" gradientTransform="matrix(0 -11.0376 11.3468 0 263.749 126.273)" gradientUnits="userSpaceOnUse" r="1" xlink:href="#o"/><radialGradient id="s" cx="0" cy="0" gradientTransform="matrix(0 -11.0376 11.3468 0 324.405 126.273)" gradientUnits="userSpaceOnUse" r="1" xlink:href="#o"/><radialGradient id="t" cx="294.396" cy="126.683" gradientUnits="userSpaceOnUse" r="12.0614" xlink:href="#o"/><radialGradient id="u" cx="0" cy="0" gradientTransform="matrix(15.47022358 -15.47022358 3.98790547 3.98790547 484.419 146.689)" gradientUnits="userSpaceOnUse" r="1" xlink:href="#m"/><linearGradient id="v" gradientUnits="userSpaceOnUse" x1="463.547" x2="463.547" y1="17.3411" y2="19.2848"><stop offset="0" stop-color="#f0f0ec"/><stop offset="1" stop-color="#babab7"/></linearGradient><g clip-rule="evenodd" fill-rule="evenodd"><path d="m226.601 41.5609c-2.505-.4782-2.832-2.5615-2.627-5.8818.273-4.4333.756-5.2887 1.792-6.6879 1.854-2.5045 4.851-4.9444 6.75-6.3503 1.873-1.3867 3.802-2.7224 5.802-4.0087 2.003-1.2891 4.013-2.497 6.037-3.6404 2.079-1.1739 4.166-2.2713 6.273-3.2936 2.151-1.0433 4.321-2.01623 6.509-2.90364 2.217-.89897 4.459-1.72902 6.721-2.47024 2.272-.74443 4.561-1.406 6.887-1.99354 2.315-.5849 4.675-1.08519 7.051-1.51682 2.347-.42621 4.709-.78287 7.122-1.06177 2.365-.27326 4.781-.47287 7.217-.60673 1.174-.06458 47.539-.14545 63.691-.14545 4.038.91273 8.212 7.39782 5.102 11.79549-17.049 0-65.988.093-67.228.1671-2.571.1538-5.121.3831-7.617.697-2.547.3204-5.041.7302-7.517 1.2198-2.509.4958-5 1.0705-7.443 1.7425-2.455.6749-4.871 1.4349-7.269 2.2901-2.388.8515-4.755 1.8051-7.095 2.8378-2.309 1.0194-4.6 2.1371-6.87 3.3356-2.224 1.1744-4.427 2.4351-6.621 3.7837-2.137 1.3135-4.258 2.7011-6.373 4.182-3.859 2.8663-6.69 5.3203-10.294 8.5098z" fill="url(#b)" stroke="url(#d)" stroke-width=".579574"/><path d="m697.875 41.5609c2.505-.4782 2.832-2.5616 2.627-5.8818-.273-4.4333-.756-5.2887-1.792-6.6879-1.854-2.5045-4.852-4.9444-6.751-6.3503-1.873-1.3867-3.802-2.7224-5.801-4.0087-2.004-1.2891-4.013-2.497-6.037-3.6404-2.079-1.1739-4.166-2.2713-6.274-3.2936-2.15-1.0433-4.321-2.01625-6.509-2.90366-2.216-.89896-4.459-1.72902-6.721-2.47024-2.272-.74442-4.56-1.40599-6.886-1.99353-2.315-.5849-4.675-1.08519-7.051-1.51681-2.347-.42621-4.709-.78288-7.123-1.06177-2.364-.27327-4.78-.47288-7.216-.60674-1.175-.06459-47.539-.14545-63.692-.14545-4.037.91273-8.211 7.39781-5.102 11.7955 17.05 0 65.988.093 67.228.1671 2.571.1538 5.122.3831 7.617.697 2.548.3204 5.041.7302 7.518 1.2198 2.508.4958 4.999 1.0705 7.443 1.7425 2.455.6749 4.871 1.4349 7.269 2.2901 2.387.8515 4.755 1.8051 7.094 2.8378 2.309 1.0194 4.6 2.1371 6.871 3.3356 2.224 1.1744 4.427 2.4351 6.621 3.7837 2.137 1.3135 4.258 2.7011 6.373 4.182 3.859 2.8663 6.69 5.3203 10.294 8.5098z" fill="url(#e)" stroke="url(#f)" stroke-width=".579574"/><path d="m605.8 14.3663c-7.635.0013-309.62.0757-312.1.2242-2.571.1537-5.121.3831-7.617.697-2.547.3203-5.041.7301-7.518 1.2197-2.508.4959-4.999 1.0706-7.442 1.7426-2.455.6749-4.871 1.4349-7.269 2.2901-2.388.8515-4.755 1.8051-7.095 2.8378-2.309 1.0194-4.6 2.1371-6.87 3.3356-2.224 1.1744-4.427 2.435-6.621 3.7837-2.137 1.3135-4.258 2.701-6.373 4.182-2.11 1.4777-4.147 3.012-6.124 4.6051-2.004 1.6151-3.959 3.2779-5.824 5.0034-1.888 1.7459-3.683 3.551-5.427 5.4018-1.762 1.8694-3.464 3.8072-5.078 5.7751-1.628 1.9848-3.179 3.9976-4.655 6.0738-1.487 2.0908-2.901 4.2479-4.232 6.4224-1.339 2.1865-2.604 4.4091-3.784 6.6712-1.184 2.2714-2.287 4.5818-3.31 6.9201-1.027 2.346-1.951 4.7155-2.813 7.1194-.864 2.4093-1.668 4.8355-2.365 7.2936-.698 2.4612-1.288 4.9421-1.817 7.4431s-.986 5.035-1.344 7.567c-.359 2.531-.636 5.066-.822 7.617-.186 2.549-.286 5.108-.299 7.667-.013 2.554.062 5.112.225 7.667.161 2.548.41 5.102.746 7.642.335 2.529.76 5.031 1.27 7.543.507 2.498 1.11 4.995 1.792 7.468.678 2.456 1.439 4.896 2.29 7.318.844 2.402 1.772 4.785 2.788 7.144 1.007 2.336 2.109 4.659 3.286 6.945 1.163 2.26 2.403 4.494 3.734 6.697 1.313 2.173 2.705 4.312 4.182 6.422 1.478 2.11 3.012 4.147 4.605 6.124 1.615 2.004 3.278 3.959 5.004 5.824 1.746 1.888 3.551 3.683 5.401 5.427 1.87 1.762 3.808 3.464 5.776 5.078 1.984 1.628 3.997 3.179 6.073 4.655 2.091 1.487 4.248 2.901 6.423 4.232 2.186 1.339 4.409 2.604 6.671 3.784 2.271 1.184 4.582 2.287 6.92 3.31 2.346 1.027 4.716 1.951 7.119 2.813 2.41.864 4.836 1.668 7.294 2.365 2.461.698 4.942 1.288 7.443 1.817 2.502.529 5.036.986 7.567 1.344 2.531.359 5.066.636 7.618.822 2.548.186 5.107.286 7.667.299 2.553.013 5.111-.062 7.666-.224 2.548-.162 5.102-.411 7.643-.747 2.528-.335 5.03-.759 7.542-1.27 2.499-.507 4.995-1.11 7.468-1.792 2.456-.677 4.896-1.439 7.318-2.29 2.402-.844 4.785-1.771 7.145-2.788 2.335-1.006 4.658-2.109 6.945-3.286 2.259-1.163 4.493-2.403 6.696-3.734 1.086-.656 4.317-3.307 6.422-3.609 2.133-.306 188.486-1.217 190.648-.573l2.362.704c1.321.394 3.999 2.191 6.176 3.478 2.216 1.311 4.437 2.571 6.696 3.734 2.287 1.177 4.61 2.28 6.946 3.286 2.359 1.017 4.742 1.944 7.144 2.788 2.422.851 4.862 1.613 7.318 2.29 2.473.682 4.945 1.285 7.443 1.792 2.512.511 5.039.935 7.567 1.27 2.541.337 5.095.585 7.643.747 2.555.162 5.113.236 7.667.224 2.559-.013 5.118-.113 7.667-.299 2.551-.186 5.086-.463 7.617-.822 2.531-.358 5.041-.815 7.542-1.344s5.007-1.119 7.468-1.817c2.458-.697 4.884-1.501 7.294-2.365 2.404-.862 4.773-1.786 7.119-2.813 2.338-1.023 4.649-2.126 6.92-3.31 2.262-1.18 4.485-2.445 6.671-3.784 2.175-1.331 4.307-2.745 6.398-4.232 2.076-1.476 4.114-3.027 6.099-4.655 1.967-1.614 3.905-3.316 5.775-5.078 1.85-1.744 3.631-3.539 5.376-5.427 1.726-1.865 3.414-3.82 5.029-5.824 1.593-1.977 3.127-4.014 4.605-6.124 1.477-2.11 2.869-4.249 4.182-6.422 1.331-2.203 2.571-4.437 3.734-6.697 1.177-2.286 2.279-4.609 3.286-6.945 1.016-2.359 1.944-4.742 2.788-7.144.851-2.422 1.612-4.862 2.29-7.318.682-2.473 1.285-4.97 1.792-7.468.51-2.512.935-5.014 1.27-7.543.336-2.54.585-5.094.746-7.642.162-2.555.237-5.113.225-7.667-.013-2.559-.113-5.118-.299-7.667-.186-2.551-.463-5.086-.822-7.617-.358-2.532-.815-5.066-1.344-7.567s-1.144-4.9819-1.842-7.4431c-.697-2.4581-1.476-4.8843-2.34-7.2936-.862-2.4039-1.811-4.7734-2.837-7.1194-1.024-2.3383-2.126-4.6487-3.311-6.9201-1.18-2.2621-2.42-4.4847-3.759-6.6712-1.331-2.1745-2.745-4.3316-4.232-6.4224-1.476-2.0762-3.027-4.089-4.655-6.0738-1.614-1.9679-3.316-3.9057-5.078-5.7751-1.744-1.8508-3.564-3.6559-5.451-5.4018-1.866-1.7255-3.796-3.3883-5.8-5.0034-1.977-1.5931-4.014-3.1274-6.124-4.6051-2.115-1.481-4.236-2.8685-6.372-4.182-2.195-1.3487-4.422-2.6093-6.647-3.7837-2.27-1.1985-4.536-2.3162-6.845-3.3356-2.34-1.0327-4.707-1.9863-7.095-2.8378-2.398-.8552-4.839-1.6152-7.293-2.2901-2.444-.672-4.91-1.2467-7.418-1.7426-2.477-.4896-4.996-.8993-7.543-1.2197-2.496-.3138-5.021-.5432-7.592-.697-2.235-.1338-24.467-.2242-24.744-.2242z" fill="url(#g)" stroke="url(#h)" stroke-width="2.89787"/></g><path d="m294.396 199.882c40.426 0 73.198-32.772 73.198-73.198 0-40.4267-32.772-73.1988-73.198-73.1988-40.427 0-73.199 32.7721-73.199 73.1988 0 40.426 32.772 73.198 73.199 73.198z" fill="url(#i)" stroke="url(#j)" stroke-width="2.2191"/><path d="m621.47 228.246c55.725 0 100.898-45.174 100.898-100.899 0-55.7244-45.173-100.8982-100.898-100.8982s-100.899 45.1738-100.899 100.8982c0 55.725 45.174 100.899 100.899 100.899z" fill="#777f82" stroke="url(#k)" stroke-width="2.89787"/><g stroke-width=".579574"><path d="m605.059 65.4537-40.836 40.8363c-9.332 9.332-10.068 23.728-1.643 32.153s22.821 7.689 32.153-1.643l40.836-40.8364c9.333-9.3324 10.068-23.7276 1.643-32.1527s-22.82-7.6895-32.153 1.6428z" fill="#f4f4f1" stroke="#fdfdfa"/><path d="m658.164 115.239-40.836 40.836c-9.332 9.333-10.068 23.728-1.643 32.153s22.82 7.69 32.153-1.643l40.836-40.836c9.332-9.332 10.068-23.728 1.643-32.153s-22.82-7.689-32.153 1.643z" fill="#f4f4f1" stroke="#fdfdfa"/><path d="m577.327 142.532c10.586 0 19.167-8.582 19.167-19.168 0-10.585-8.581-19.167-19.167-19.167s-19.168 8.582-19.168 19.167c0 10.586 8.582 19.168 19.168 19.168z" fill="#1a1a1a" stroke="#ebebe8"/></g><path d="m577.327 140.706c9.577 0 17.342-7.764 17.342-17.342 0-9.577-7.765-17.342-17.342-17.342-9.578 0-17.342 7.765-17.342 17.342 0 9.578 7.764 17.342 17.342 17.342z" fill="url(#l)" stroke="#00ab7f" stroke-width="1.15915"/><path d="m630.763 192.981c10.586 0 19.168-8.581 19.168-19.167s-8.582-19.168-19.168-19.168-19.167 8.582-19.167 19.168 8.581 19.167 19.167 19.167z" fill="#1a1a1a" stroke="#ebebe8" stroke-width=".579574"/><path d="m630.763 191.156c9.578 0 17.342-7.765 17.342-17.342 0-9.578-7.764-17.342-17.342-17.342-9.577 0-17.342 7.764-17.342 17.342 0 9.577 7.765 17.342 17.342 17.342z" fill="#ffbb58" stroke="#ba853d" stroke-width="1.15915"/><path d="m675.57 147.842c10.586 0 19.168-8.581 19.168-19.167s-8.582-19.168-19.168-19.168-19.167 8.582-19.167 19.168 8.581 19.167 19.167 19.167z" fill="#1a1a1a" stroke="#ebebe8" stroke-width=".579574"/><path d="m675.57 146.017c9.578 0 17.342-7.764 17.342-17.342s-7.764-17.342-17.342-17.342-17.342 7.764-17.342 17.342 7.764 17.342 17.342 17.342z" fill="#ff4856" stroke="#c72b3e" stroke-width="1.15915"/><path d="m621.802 97.7249c10.586 0 19.167-8.5816 19.167-19.1674 0-10.5859-8.581-19.1675-19.167-19.1675s-19.168 8.5816-19.168 19.1675c0 10.5858 8.582 19.1674 19.168 19.1674z" fill="#1a1a1a" stroke="#ebebe8" stroke-width=".579574"/><path d="m621.802 95.8996c9.578 0 17.342-7.7643 17.342-17.342s-7.764-17.3419-17.342-17.3419-17.342 7.7642-17.342 17.3419 7.764 17.342 17.342 17.342z" fill="#0075fa" stroke="#0054b3" stroke-width="1.15915"/><path d="m429.401 129.464-25.205 25.205c-1.904 1.905-1.904 4.992 0 6.896l2.247 2.247c1.904 1.904 4.991 1.904 6.896 0l25.205-25.205c1.904-1.904 1.904-4.992 0-6.896l-2.247-2.247c-1.904-1.904-4.992-1.904-6.896 0z" fill="#1a1a1a" stroke="#e2e2df" stroke-width="1.06435"/><path d="m430.009 130.594-24.785 24.784c-1.542 1.543-1.542 4.044 0 5.586l1.82 1.82c1.542 1.542 4.043 1.542 5.586 0l24.784-24.785c1.542-1.542 1.542-4.043 0-5.585l-1.82-1.82c-1.542-1.543-4.043-1.542-5.585 0z" fill="url(#n)" stroke="#252a2a" stroke-width=".704182"/><path d="m283.276 76.8673c-2.957 0-5.337 2.3805-5.337 5.3374v28.0213h-28.022c-2.956 0-5.337 2.38-5.337 5.337v22.239c0 2.957 2.381 5.338 5.337 5.338h28.022v28.021c0 2.957 2.38 5.338 5.337 5.338h22.239c2.957 0 5.338-2.381 5.338-5.338v-28.021h28.021c2.957 0 5.337-2.381 5.337-5.338v-22.239c0-2.957-2.38-5.337-5.337-5.337h-28.021v-28.0213c0-2.9569-2.381-5.3374-5.338-5.3374z" fill="#1a1a1a" stroke="#8e979e" stroke-width=".543679"/><path d="m285.27 81.4875c-2.342 0-4.228 2.1335-4.228 4.7836v26.9329h-27.464c-2.342 0-4.228 2.133-4.228 4.784v17.364c0 2.65 1.886 4.784 4.228 4.784h27.464v27.083c0 2.65 1.886 4.783 4.228 4.783h17.827c2.343 0 4.228-2.133 4.228-4.783v-27.083h28.002c2.342 0 4.228-2.134 4.228-4.784v-17.364c0-2.651-1.886-4.784-4.228-4.784h-27.553v-26.9329c0-2.6501-1.885-4.7836-4.227-4.7836z" fill="#4d5254" stroke="#63686b" stroke-width="1.10955"/><g stroke="#4f5457"><g stroke-opacity=".862745" stroke-width="1.19459"><path d="m284.033 105.127c-.94-1.885.564-4.851.564-4.851l3.133-6.2838 3.132-6.2836s1.254-2.4269 3.133-2.4269c1.88 0 3.133 2.4269 3.133 2.4269l3.133 6.2836 3.132 6.2838s1.694 2.856.754 4.741-3.886 1.543-3.886 1.543h-6.266-6.265s-2.757.452-3.697-1.433z" fill="url(#p)"/><path d="m284.033 147.417c-.94 1.885.564 4.851.564 4.851l3.133 6.284 3.132 6.283s1.254 2.427 3.133 2.427c1.88 0 3.133-2.427 3.133-2.427l3.133-6.283 3.132-6.284s1.694-2.856.754-4.741-3.886-1.543-3.886-1.543h-6.266-6.265s-2.757-.452-3.697 1.433z" fill="url(#q)"/><path d="m272.932 136.317c-1.885.94-4.851-.564-4.851-.564l-6.284-3.132-6.283-3.133s-2.427-1.253-2.427-3.133c0-1.879 2.427-3.133 2.427-3.133l6.283-3.132 6.284-3.133s2.856-1.694 4.741-.754 1.543 3.887 1.543 3.887v6.265 6.266s.452 2.756-1.433 3.696z" fill="url(#r)"/><path d="m315.222 136.317c1.885.94 4.851-.564 4.851-.564l6.284-3.132 6.284-3.133s2.427-1.253 2.427-3.133c0-1.879-2.427-3.133-2.427-3.133l-6.284-3.132-6.284-3.133s-2.856-1.694-4.741-.754-1.542 3.887-1.542 3.887v6.265 6.266s-.453 2.756 1.432 3.696z" fill="url(#s)"/></g><path d="m294.396 137.961c6.228 0 11.277-5.049 11.277-11.277 0-6.229-5.049-11.278-11.277-11.278-6.229 0-11.278 5.049-11.278 11.278 0 6.228 5.049 11.277 11.278 11.277z" fill="url(#t)" stroke-opacity=".861702" stroke-width="1.36889"/></g><path d="m492.501 129.464-25.205 25.205c-1.905 1.905-1.905 4.992 0 6.896l2.246 2.247c1.905 1.904 4.992 1.904 6.896 0l25.206-25.205c1.904-1.904 1.904-4.992 0-6.896l-2.247-2.247c-1.904-1.904-4.992-1.904-6.896 0z" fill="#1a1a1a" stroke="#e2e2df" stroke-width="1.06435"/><path d="m493.108 130.594-24.784 24.784c-1.543 1.543-1.543 4.044 0 5.586l1.82 1.82c1.542 1.542 4.043 1.542 5.585 0l24.785-24.785c1.542-1.542 1.542-4.043 0-5.585l-1.82-1.82c-1.543-1.543-4.043-1.542-5.586 0z" fill="url(#u)" stroke="#252a2a" stroke-width=".704182"/><path d="m473.772 12.7654h-23.3c-.257 0-.465.3471-.465.7753v4.017c0 .4282.208.7753.465.7753h23.3c.256 0 .464-.3471.464-.7753v-4.017c0-.4282-.208-.7753-.464-.7753z" fill="url(#v)"/><g clip-rule="evenodd" fill-rule="evenodd"><path d="m418 171c1.657 0 3 1.343 3 3v60.5h55v-60.5c0-1.657 1.343-3 3-3s3 1.343 3 3v66.5h-30.5v48c0 1.657-1.343 3-3 3s-3-1.343-3-3v-48h-30.5v-66.5c0-1.657 1.343-3 3-3z" fill="#7b8385"/><path d="m149 126.5c0-1.657 1.343-3 3-3h88.5c1.657 0 3 1.343 3 3s-1.343 3-3 3h-88.5c-1.657 0-3-1.343-3-3z" fill="#7b8385"/><path d="m679 129c0-1.657 1.343-3 3-3h105.5c1.657 0 3 1.343 3 3s-1.343 3-3 3h-105.5c-1.657 0-3-1.343-3-3z" fill="#ff4856"/><path d="m635 174c0-1.657 1.343-3 3-3h150c1.657 0 3 1.343 3 3s-1.343 3-3 3h-150c-1.657 0-3-1.343-3-3z" fill="#ffbb58"/></g><g fill="#515561"><path d="m905.402 131.3c.32.4.72.93 1.2 1.59.5.64 1.01 1.36 1.53 2.16.52.78 1.03 1.6 1.53 2.46.52.86.96 1.69 1.32 2.49h-3.18c-.4-.76-.84-1.53-1.32-2.31-.46-.78-.93-1.52-1.41-2.22-.48-.72-.96-1.39-1.44-2.01-.46-.62-.88-1.16-1.26-1.62-.26.02-.53.03-.81.03-.26 0-.53 0-.81 0h-2.61v8.13h-2.91v-20.49c.82-.2 1.73-.33 2.73-.39 1.02-.08 1.95-.12 2.79-.12 2.92 0 5.14.55 6.66 1.65 1.54 1.1 2.31 2.74 2.31 4.92 0 1.38-.37 2.56-1.11 3.54-.72.98-1.79 1.71-3.21 2.19zm-4.41-9.75c-1.24 0-2.19.03-2.85.09v7.83h2.07c1 0 1.9-.05 2.7-.15s1.47-.29 2.01-.57c.56-.28.99-.67 1.29-1.17.3-.52.45-1.2.45-2.04 0-.78-.15-1.43-.45-1.95s-.71-.93-1.23-1.23c-.5-.3-1.1-.51-1.8-.63-.68-.12-1.41-.18-2.19-.18z"/><path d="m881.818 140.45c-1.36 0-2.54-.21-3.54-.63s-1.82-.99-2.46-1.71c-.64-.74-1.12-1.61-1.44-2.61-.3-1-.45-2.08-.45-3.24v-13.05h2.91v12.72c0 2.08.46 3.59 1.38 4.53s2.12 1.41 3.6 1.41c.74 0 1.41-.11 2.01-.33.62-.24 1.15-.6 1.59-1.08s.78-1.09 1.02-1.83c.24-.76.36-1.66.36-2.7v-12.72h2.91v13.05c0 1.16-.16 2.24-.48 3.24-.3 1-.78 1.87-1.44 2.61-.64.72-1.46 1.29-2.46 1.71-.98.42-2.15.63-3.51.63z"/><path d="m849.388 129.59c0-1.78.26-3.35.78-4.71.54-1.36 1.26-2.49 2.16-3.39.92-.92 1.98-1.61 3.18-2.07 1.22-.46 2.51-.69 3.87-.69 1.34 0 2.6.23 3.78.69 1.2.46 2.25 1.15 3.15 2.07.9.9 1.61 2.03 2.13 3.39.54 1.36.81 2.93.81 4.71s-.27 3.35-.81 4.71c-.52 1.36-1.23 2.5-2.13 3.42-.9.9-1.95 1.58-3.15 2.04-1.18.46-2.44.69-3.78.69-1.36 0-2.65-.23-3.87-.69-1.2-.46-2.26-1.14-3.18-2.04-.9-.92-1.62-2.06-2.16-3.42-.52-1.36-.78-2.93-.78-4.71zm3.06 0c0 1.26.16 2.41.48 3.45.32 1.02.77 1.89 1.35 2.61.6.72 1.32 1.28 2.16 1.68.86.38 1.82.57 2.88.57s2.01-.19 2.85-.57c.84-.4 1.55-.96 2.13-1.68.6-.72 1.06-1.59 1.38-2.61.32-1.04.48-2.19.48-3.45s-.16-2.4-.48-3.42c-.32-1.04-.78-1.92-1.38-2.64-.58-.72-1.29-1.27-2.13-1.65-.84-.4-1.79-.6-2.85-.6s-2.02.2-2.88.6c-.84.38-1.56.93-2.16 1.65-.58.72-1.03 1.6-1.35 2.64-.32 1.02-.48 2.16-.48 3.42z"/><path d="m847.476 119.21v2.52h-6.54v18.27h-2.91v-18.27h-6.54v-2.52z"/><path d="m815.947 140v-20.79h12.69v2.49h-9.78v6.18h8.7v2.43h-8.7v7.2h10.53v2.49z"/><path d="m806.75 131.3c.32.4.72.93 1.2 1.59.5.64 1.01 1.36 1.53 2.16.52.78 1.03 1.6 1.53 2.46.52.86.96 1.69 1.32 2.49h-3.18c-.4-.76-.84-1.53-1.32-2.31-.46-.78-.93-1.52-1.41-2.22-.48-.72-.96-1.39-1.44-2.01-.46-.62-.88-1.16-1.26-1.62-.26.02-.53.03-.81.03-.26 0-.53 0-.81 0h-2.61v8.13h-2.91v-20.49c.82-.2 1.73-.33 2.73-.39 1.02-.08 1.95-.12 2.79-.12 2.92 0 5.14.55 6.66 1.65 1.54 1.1 2.31 2.74 2.31 4.92 0 1.38-.37 2.56-1.11 3.54-.72.98-1.79 1.71-3.21 2.19zm-4.41-9.75c-1.24 0-2.19.03-2.85.09v7.83h2.07c1 0 1.9-.05 2.7-.15s1.47-.29 2.01-.57c.56-.28.99-.67 1.29-1.17.3-.52.45-1.2.45-2.04 0-.78-.15-1.43-.45-1.95s-.71-.93-1.23-1.23c-.5-.3-1.1-.51-1.8-.63-.68-.12-1.41-.18-2.19-.18z"/><path d="m906.656 92.93c3.04 0 4.56-1.04 4.56-3.12 0-.64-.14-1.18-.42-1.62-.26-.46-.62-.85-1.08-1.17-.46-.34-.99-.63-1.59-.87-.58-.24-1.2-.48-1.86-.72-.76-.26-1.48-.55-2.16-.87-.68-.34-1.27-.73-1.77-1.17-.5-.46-.9-1-1.2-1.62-.28-.62-.42-1.37-.42-2.25 0-1.82.62-3.24 1.86-4.26s2.95-1.53 5.13-1.53c1.26 0 2.4.14 3.42.42 1.04.26 1.8.55 2.28.87l-.93 2.37c-.42-.26-1.05-.51-1.89-.75-.82-.26-1.78-.39-2.88-.39-.56 0-1.08.06-1.56.18s-.9.3-1.26.54-.65.55-.87.93c-.2.36-.3.79-.3 1.29 0 .56.11 1.03.33 1.41s.53.72.93 1.02c.4.28.86.54 1.38.78.54.24 1.13.48 1.77.72.9.36 1.72.72 2.46 1.08.76.36 1.41.79 1.95 1.29.56.5.99 1.1 1.29 1.8.3.68.45 1.51.45 2.49 0 1.82-.67 3.22-2.01 4.2-1.32.98-3.19 1.47-5.61 1.47-.82 0-1.58-.06-2.28-.18-.68-.1-1.29-.22-1.83-.36-.54-.16-1.01-.32-1.41-.48-.38-.18-.68-.33-.9-.45l.87-2.4c.46.26 1.16.55 2.1.87s2.09.48 3.45.48z"/><path d="m893.27 74.21h2.91v20.79h-2.91z"/><path d="m884.072 86.3c.32.4.72.93 1.2 1.59.5.64 1.01 1.36 1.53 2.16.52.78 1.03 1.6 1.53 2.46.52.86.96 1.69 1.32 2.49h-3.18c-.4-.76-.84-1.53-1.32-2.31-.46-.78-.93-1.52-1.41-2.22-.48-.72-.96-1.39-1.44-2.01-.46-.62-.88-1.16-1.26-1.62-.26.02-.53.03-.81.03-.26 0-.53 0-.81 0h-2.61v8.13h-2.91v-20.49c.82-.2 1.73-.33 2.73-.39 1.02-.08 1.95-.12 2.79-.12 2.92 0 5.14.55 6.66 1.65 1.54 1.1 2.31 2.74 2.31 4.92 0 1.38-.37 2.56-1.11 3.54-.72.98-1.79 1.71-3.21 2.19zm-4.41-9.75c-1.24 0-2.19.03-2.85.09v7.83h2.07c1 0 1.9-.05 2.7-.15s1.47-.29 2.01-.57c.56-.28.99-.67 1.29-1.17.3-.52.45-1.2.45-2.04 0-.78-.15-1.43-.45-1.95s-.71-.93-1.23-1.23c-.5-.3-1.1-.51-1.8-.63-.68-.12-1.41-.18-2.19-.18z"/><path d="m849.213 84.59c0-1.78.26-3.35.78-4.71.54-1.36 1.26-2.49 2.16-3.39.92-.92 1.98-1.61 3.18-2.07 1.22-.46 2.51-.69 3.87-.69 1.34 0 2.6.23 3.78.69 1.2.46 2.25 1.15 3.15 2.07.9.9 1.61 2.03 2.13 3.39.54 1.36.81 2.93.81 4.71s-.27 3.35-.81 4.71c-.52 1.36-1.23 2.5-2.13 3.42-.9.9-1.95 1.58-3.15 2.04-1.18.46-2.44.69-3.78.69-1.36 0-2.65-.23-3.87-.69-1.2-.46-2.26-1.14-3.18-2.04-.9-.92-1.62-2.06-2.16-3.42-.52-1.36-.78-2.93-.78-4.71zm3.06 0c0 1.26.16 2.41.48 3.45.32 1.02.77 1.89 1.35 2.61.6.72 1.32 1.28 2.16 1.68.86.38 1.82.57 2.88.57s2.01-.19 2.85-.57c.84-.4 1.55-.96 2.13-1.68.6-.72 1.06-1.59 1.38-2.61.32-1.04.48-2.19.48-3.45s-.16-2.4-.48-3.42c-.32-1.04-.78-1.92-1.38-2.64-.58-.72-1.29-1.27-2.13-1.65-.84-.4-1.79-.6-2.85-.6s-2.02.2-2.88.6c-.84.38-1.56.93-2.16 1.65-.58.72-1.03 1.6-1.35 2.64-.32 1.02-.48 2.16-.48 3.42z"/><path d="m847.163 74.21c-.76 2.2-1.49 4.24-2.19 6.12-.68 1.86-1.35 3.63-2.01 5.31s-1.32 3.29-1.98 4.83c-.64 1.52-1.3 3.03-1.98 4.53h-2.73c-.68-1.5-1.35-3.01-2.01-4.53-.64-1.54-1.3-3.15-1.98-4.83-.66-1.68-1.34-3.45-2.04-5.31-.7-1.88-1.42-3.92-2.16-6.12h3.21c1.08 3.16 2.14 6.2 3.18 9.12s2.11 5.66 3.21 8.22c1.1-2.54 2.17-5.27 3.21-8.19 1.04-2.94 2.09-5.99 3.15-9.15z"/><path d="m825.706 95c-.34-.9-.66-1.78-.96-2.64-.3-.88-.61-1.77-.93-2.67h-9.42l-1.89 5.31h-3.03c.8-2.2 1.55-4.23 2.25-6.09.7-1.88 1.38-3.66 2.04-5.34.68-1.68 1.35-3.28 2.01-4.8.66-1.54 1.35-3.06 2.07-4.56h2.67c.72 1.5 1.41 3.02 2.07 4.56.66 1.52 1.32 3.12 1.98 4.8.68 1.68 1.37 3.46 2.07 5.34.7 1.86 1.45 3.89 2.25 6.09zm-2.73-7.71c-.64-1.74-1.28-3.42-1.92-5.04-.62-1.64-1.27-3.21-1.95-4.71-.7 1.5-1.37 3.07-2.01 4.71-.62 1.62-1.24 3.3-1.86 5.04z"/><path d="m796.58 95v-20.79h12.54v2.49h-9.63v6.27h8.55v2.46h-8.55v9.57z"/><path d="m139.883 127.3c.32.4.72.93 1.2 1.59.5.64 1.01 1.36 1.53 2.16.52.78 1.03 1.6 1.53 2.46.52.86.96 1.69 1.32 2.49h-3.18c-.4-.76-.84-1.53-1.32-2.31-.46-.78-.93-1.52-1.41-2.22-.48-.72-.96-1.39-1.44-2.01-.46-.62-.88-1.16-1.26-1.62-.26.02-.53.03-.81.03-.26 0-.53 0-.81 0h-2.61v8.13h-2.91v-20.49c.82-.2 1.73-.33 2.73-.39 1.02-.08 1.95-.12 2.79-.12 2.92 0 5.14.55 6.66 1.65 1.54 1.1 2.31 2.74 2.31 4.92 0 1.38-.37 2.56-1.11 3.54-.72.98-1.79 1.71-3.21 2.19zm-4.41-9.75c-1.24 0-2.19.03-2.85.09v7.83h2.07c1 0 1.9-.05 2.7-.15s1.47-.29 2.01-.57c.56-.28.99-.67 1.29-1.17.3-.52.45-1.2.45-2.04 0-.78-.15-1.43-.45-1.95s-.71-.93-1.23-1.23c-.5-.3-1.1-.51-1.8-.63-.68-.12-1.41-.18-2.19-.18z"/><path d="m112.074 136v-20.79h12.69v2.49h-9.78v6.18h8.7v2.43h-8.7v7.2h10.53v2.49z"/><path d="m98.6598 136.45c-1.36 0-2.54-.21-3.54-.63s-1.82-.99-2.46-1.71c-.64-.74-1.12-1.61-1.44-2.61-.3-1-.45-2.08-.45-3.24v-13.05h2.91v12.72c0 2.08.46 3.59 1.38 4.53s2.12 1.41 3.6 1.41c.74 0 1.4102-.11 2.0102-.33.62-.24 1.15-.6 1.59-1.08s.78-1.09 1.02-1.83c.24-.76.36-1.66.36-2.7v-12.72h2.91v13.05c0 1.16-.16 2.24-.48 3.24-.3 1-.78 1.87-1.44 2.61-.64.72-1.46 1.29-2.46 1.71-.98.42-2.15.63-3.5102.63z"/><path d="m82.9536 125.77h2.91v9.72c-.24.08-.59.17-1.05.27-.44.1-.96.2-1.56.3-.58.1-1.22.18-1.92.24-.7.08-1.41.12-2.13.12-1.46 0-2.79-.24-3.99-.72s-2.23-1.18-3.09-2.1-1.53-2.05-2.01-3.39c-.46-1.34-.69-2.88-.69-4.62s.26-3.28.78-4.62c.54-1.36 1.26-2.5 2.16-3.42s1.95-1.62 3.15-2.1c1.22-.48 2.52-.72 3.9-.72.94 0 1.77.06 2.49.18.74.12 1.37.26 1.89.42s.94.32 1.26.48c.34.16.57.28.69.36l-.93 2.43c-.58-.38-1.35-.69-2.31-.93-.96-.26-1.94-.39-2.94-.39-1.06 0-2.03.19-2.91.57-.86.38-1.6.93-2.22 1.65-.6.72-1.07 1.6-1.41 2.64-.34 1.02-.51 2.17-.51 3.45 0 1.24.14 2.37.42 3.39.3 1.02.74 1.9 1.32 2.64.6.72 1.33 1.28 2.19 1.68.88.4 1.91.6 3.09.6.84 0 1.55-.04 2.13-.12.6-.1 1.03-.19 1.29-.27z"/><path d="m61.7069 115.21h2.91v20.79h-2.91z"/><path d="m58.3194 115.21c-.76 2.2-1.49 4.24-2.19 6.12-.68 1.86-1.35 3.63-2.01 5.31s-1.32 3.29-1.98 4.83c-.64 1.52-1.3 3.03-1.98 4.53h-2.73c-.68-1.5-1.35-3.01-2.01-4.53-.64-1.54-1.3-3.15-1.98-4.83-.66-1.68-1.34-3.45-2.04-5.31-.7-1.88-1.42-3.92-2.16-6.12h3.21c1.08 3.16 2.14 6.2 3.18 9.12s2.11 5.66 3.21 8.22c1.1-2.54 2.17-5.27 3.21-8.19 1.04-2.94 2.09-5.99 3.15-9.15z"/><path d="m36.8626 136c-.34-.9-.66-1.78-.96-2.64-.3-.88-.61-1.77-.93-2.67h-9.42l-1.89 5.31h-3.03c.8-2.2 1.55-4.23 2.25-6.09.7-1.88 1.38-3.66 2.04-5.34.68-1.68 1.35-3.28 2.01-4.8.66-1.54 1.35-3.06 2.07-4.56h2.67c.72 1.5 1.41 3.02 2.07 4.56.66 1.52 1.32 3.12 1.98 4.8.68 1.68 1.37 3.46 2.07 5.34.7 1.86 1.45 3.89 2.25 6.09zm-2.73-7.71c-.64-1.74-1.28-3.42-1.92-5.04-.62-1.64-1.27-3.21-1.95-4.71-.7 1.5-1.37 3.07-2.01 4.71-.62 1.62-1.24 3.3-1.86 5.04z"/><path d="m14.8964 136c-.44-.74-.95-1.57-1.53-2.49-.56-.92-1.17-1.87-1.83-2.85-.66-1-1.35-2.01-2.07004-3.03-.7-1.02-1.4-2-2.1-2.94-.7-.96-1.38-1.86-2.04-2.7s-1.27-1.58-1.83-2.22v16.23h-2.849998v-20.79h2.309998c.94 1 1.94 2.17 3 3.51 1.08 1.32 2.14 2.69 3.18 4.11 1.06004 1.4 2.05004 2.78 2.97004 4.14.94 1.36 1.73 2.57 2.37 3.63v-15.39h2.85v20.79z"/><path d="m1005.46 176.3c.32.4.72.93 1.2 1.59.5.64 1.01 1.36 1.53 2.16.52.78 1.03 1.6 1.53 2.46.52.86.96 1.69 1.32 2.49h-3.18c-.4-.76-.84-1.53-1.32-2.31-.46-.78-.93-1.52-1.41-2.22-.48-.72-.96-1.39-1.44-2.01-.46-.62-.88-1.16-1.26-1.62-.26.02-.53.03-.81.03-.26 0-.53 0-.81 0h-2.607v8.13h-2.91v-20.49c.82-.2 1.73-.33 2.73-.39 1.02-.08 1.95-.12 2.787-.12 2.92 0 5.14.55 6.66 1.65 1.54 1.1 2.31 2.74 2.31 4.92 0 1.38-.37 2.56-1.11 3.54-.72.98-1.79 1.71-3.21 2.19zm-4.41-9.75c-1.237 0-2.187.03-2.847.09v7.83h2.067c1 0 1.9-.05 2.7-.15s1.47-.29 2.01-.57c.56-.28.99-.67 1.29-1.17.3-.52.45-1.2.45-2.04 0-.78-.15-1.43-.45-1.95s-.71-.93-1.23-1.23c-.5-.3-1.1-.51-1.8-.63-.68-.12-1.41-.18-2.19-.18z"/><path d="m977.654 185v-20.79h12.69v2.49h-9.78v6.18h8.7v2.43h-8.7v7.2h10.53v2.49z"/><path d="m969.578 185c-.44-.74-.95-1.57-1.53-2.49-.56-.92-1.17-1.87-1.83-2.85-.66-1-1.35-2.01-2.07-3.03-.7-1.02-1.4-2-2.1-2.94-.7-.96-1.38-1.86-2.04-2.7s-1.27-1.58-1.83-2.22v16.23h-2.85v-20.79h2.31c.94 1 1.94 2.17 3 3.51 1.08 1.32 2.14 2.69 3.18 4.11 1.06 1.4 2.05 2.78 2.97 4.14.94 1.36 1.73 2.57 2.37 3.63v-15.39h2.85v20.79z"/><path d="m947.252 185c-.44-.74-.95-1.57-1.53-2.49-.56-.92-1.17-1.87-1.83-2.85-.66-1-1.35-2.01-2.07-3.03-.7-1.02-1.4-2-2.1-2.94-.7-.96-1.38-1.86-2.04-2.7s-1.27-1.58-1.83-2.22v16.23h-2.85v-20.79h2.31c.94 1 1.94 2.17 3 3.51 1.08 1.32 2.14 2.69 3.18 4.11 1.06 1.4 2.05 2.78 2.97 4.14.94 1.36 1.73 2.57 2.37 3.63v-15.39h2.85v20.79z"/><path d="m908.312 174.59c0-1.78.26-3.35.78-4.71.54-1.36 1.26-2.49 2.16-3.39.92-.92 1.98-1.61 3.18-2.07 1.22-.46 2.51-.69 3.87-.69 1.34 0 2.6.23 3.78.69 1.2.46 2.25 1.15 3.15 2.07.9.9 1.61 2.03 2.13 3.39.54 1.36.81 2.93.81 4.71s-.27 3.35-.81 4.71c-.52 1.36-1.23 2.5-2.13 3.42-.9.9-1.95 1.58-3.15 2.04-1.18.46-2.44.69-3.78.69-1.36 0-2.65-.23-3.87-.69-1.2-.46-2.26-1.14-3.18-2.04-.9-.92-1.62-2.06-2.16-3.42-.52-1.36-.78-2.93-.78-4.71zm3.06 0c0 1.26.16 2.41.48 3.45.32 1.02.77 1.89 1.35 2.61.6.72 1.32 1.28 2.16 1.68.86.38 1.82.57 2.88.57s2.01-.19 2.85-.57c.84-.4 1.55-.96 2.13-1.68.6-.72 1.06-1.59 1.38-2.61.32-1.04.48-2.19.48-3.45s-.16-2.4-.48-3.42c-.32-1.04-.78-1.92-1.38-2.64-.58-.72-1.29-1.27-2.13-1.65-.84-.4-1.79-.6-2.85-.6s-2.02.2-2.88.6c-.84.38-1.56.93-2.16 1.65-.58.72-1.03 1.6-1.35 2.64-.32 1.02-.48 2.16-.48 3.42z"/><path d="m900.596 164.21h2.91v20.79h-2.91z"/><path d="m897.023 164.21v2.52h-6.54v18.27h-2.91v-18.27h-6.54v-2.52z"/><path d="m872.471 185.45c-1.46 0-2.79-.24-3.99-.72s-2.23-1.18-3.09-2.1-1.53-2.05-2.01-3.39c-.46-1.36-.69-2.91-.69-4.65s.26-3.28.78-4.62c.54-1.36 1.26-2.5 2.16-3.42s1.95-1.62 3.15-2.1 2.48-.72 3.84-.72c.86 0 1.63.06 2.31.18.7.12 1.3.26 1.8.42.52.16.94.32 1.26.48s.54.28.66.36l-.84 2.4c-.18-.12-.44-.25-.78-.39s-.73-.28-1.17-.42c-.42-.14-.89-.25-1.41-.33-.5-.1-1.01-.15-1.53-.15-1.1 0-2.09.19-2.97.57s-1.63.93-2.25 1.65-1.1 1.6-1.44 2.64c-.32 1.02-.48 2.17-.48 3.45 0 1.24.14 2.37.42 3.39.3 1.02.74 1.9 1.32 2.64.58.72 1.3 1.28 2.16 1.68.88.4 1.9.6 3.06.6 1.34 0 2.45-.14 3.33-.42s1.54-.53 1.98-.75l.75 2.4c-.14.1-.39.23-.75.39-.36.14-.81.28-1.35.42s-1.17.26-1.89.36-1.5.15-2.34.15z"/><path d="m846.742 185v-20.79h12.69v2.49h-9.78v6.18h8.7v2.43h-8.7v7.2h10.53v2.49z"/><path d="m843.196 182.48v2.52h-12.51v-20.79h2.91v18.27z"/><path d="m813.047 185v-20.79h12.69v2.49h-9.78v6.18h8.7v2.43h-8.7v7.2h10.53v2.49z"/><path d="m801.41 182.93c3.04 0 4.56-1.04 4.56-3.12 0-.64-.14-1.18-.42-1.62-.26-.46-.62-.85-1.08-1.17-.46-.34-.99-.63-1.59-.87-.58-.24-1.2-.48-1.86-.72-.76-.26-1.48-.55-2.16-.87-.68-.34-1.27-.73-1.77-1.17-.5-.46-.9-1-1.2-1.62-.28-.62-.42-1.37-.42-2.25 0-1.82.62-3.24 1.86-4.26s2.95-1.53 5.13-1.53c1.26 0 2.4.14 3.42.42 1.04.26 1.8.55 2.28.87l-.93 2.37c-.42-.26-1.05-.51-1.89-.75-.82-.26-1.78-.39-2.88-.39-.56 0-1.08.06-1.56.18s-.9.3-1.26.54-.65.55-.87.93c-.2.36-.3.79-.3 1.29 0 .56.11 1.03.33 1.41s.53.72.93 1.02c.4.28.86.54 1.38.78.54.24 1.13.48 1.77.72.9.36 1.72.72 2.46 1.08.76.36 1.41.79 1.95 1.29.56.5.99 1.1 1.29 1.8.3.68.45 1.51.45 2.49 0 1.82-.67 3.22-2.01 4.2-1.32.98-3.19 1.47-5.61 1.47-.82 0-1.58-.06-2.28-.18-.68-.1-1.29-.22-1.83-.36-.54-.16-1.01-.32-1.41-.48-.38-.18-.68-.33-.9-.45l.87-2.4c.46.26 1.16.55 2.1.87s2.09.48 3.45.48z"/><path d="m545.783 321.45c-1.36 0-2.54-.21-3.54-.63s-1.82-.99-2.46-1.71c-.64-.74-1.12-1.61-1.44-2.61-.3-1-.45-2.08-.45-3.24v-13.05h2.91v12.72c0 2.08.46 3.59 1.38 4.53s2.12 1.41 3.6 1.41c.74 0 1.41-.11 2.01-.33.62-.24 1.15-.6 1.59-1.08s.78-1.09 1.02-1.83c.24-.76.36-1.66.36-2.7v-12.72h2.91v13.05c0 1.16-.16 2.24-.48 3.24-.3 1-.78 1.87-1.44 2.61-.64.72-1.46 1.29-2.46 1.71-.98.42-2.15.63-3.51.63z"/><path d="m521.078 321v-20.79h12.69v2.49h-9.78v6.18h8.7v2.43h-8.7v7.2h10.53v2.49z"/><path d="m515.568 314.31c0 1-.11 1.93-.33 2.79-.2.86-.57 1.62-1.11 2.28-.52.64-1.23 1.15-2.13 1.53-.88.36-1.99.54-3.33.54-.68 0-1.31-.06-1.89-.18-.56-.1-1.07-.23-1.53-.39-.46-.18-.86-.36-1.2-.54-.34-.2-.61-.39-.81-.57l1.14-2.31c.42.3.96.62 1.62.96.68.32 1.52.48 2.52.48 1.44 0 2.49-.36 3.15-1.08.66-.74.99-2 .99-3.78v-13.83h2.91z"/><path d="m484.72 321.45c-1.36 0-2.54-.21-3.54-.63s-1.82-.99-2.46-1.71c-.64-.74-1.12-1.61-1.44-2.61-.3-1-.45-2.08-.45-3.24v-13.05h2.91v12.72c0 2.08.46 3.59 1.38 4.53s2.12 1.41 3.6 1.41c.74 0 1.41-.11 2.01-.33.62-.24 1.15-.6 1.59-1.08s.78-1.09 1.02-1.83c.24-.76.36-1.66.36-2.7v-12.72h2.91v13.05c0 1.16-.16 2.24-.48 3.24-.3 1-.78 1.87-1.44 2.61-.64.72-1.46 1.29-2.46 1.71-.98.42-2.15.63-3.51.63z"/><path d="m472.164 310.59c0 1.8-.28 3.37-.84 4.71-.56 1.32-1.35 2.42-2.37 3.3-1.02.86-2.24 1.51-3.66 1.95-1.42.42-2.98.63-4.68.63-.84 0-1.77-.04-2.79-.12-1-.06-1.91-.19-2.73-.39v-20.16c.82-.2 1.73-.33 2.73-.39 1.02-.08 1.95-.12 2.79-.12 1.7 0 3.26.22 4.68.66 1.42.42 2.64 1.07 3.66 1.95 1.02.86 1.81 1.96 2.37 3.3.56 1.32.84 2.88.84 4.68zm-11.31 8.04c2.76 0 4.82-.7 6.18-2.1 1.36-1.42 2.04-3.4 2.04-5.94s-.68-4.51-2.04-5.91c-1.36-1.42-3.42-2.13-6.18-2.13-.82 0-1.46.01-1.92.03-.44.02-.75.04-.93.06v15.9c.18.02.49.04.93.06.46.02 1.1.03 1.92.03z"/><path d="m438.453 312.3c.32.4.72.93 1.2 1.59.5.64 1.01 1.36 1.53 2.16.52.78 1.03 1.6 1.53 2.46.52.86.96 1.69 1.32 2.49h-3.18c-.4-.76-.84-1.53-1.32-2.31-.46-.78-.93-1.52-1.41-2.22-.48-.72-.96-1.39-1.44-2.01-.46-.62-.88-1.16-1.26-1.62-.26.02-.53.03-.81.03-.26 0-.53 0-.81 0h-2.61v8.13h-2.91v-20.49c.82-.2 1.73-.33 2.73-.39 1.02-.08 1.95-.12 2.79-.12 2.92 0 5.14.55 6.66 1.65 1.54 1.1 2.31 2.74 2.31 4.92 0 1.38-.37 2.56-1.11 3.54-.72.98-1.79 1.71-3.21 2.19zm-4.41-9.75c-1.24 0-2.19.03-2.85.09v7.83h2.07c1 0 1.9-.05 2.7-.15s1.47-.29 2.01-.57c.56-.28.99-.67 1.29-1.17.3-.52.45-1.2.45-2.04 0-.78-.15-1.43-.45-1.95s-.71-.93-1.23-1.23c-.5-.3-1.1-.51-1.8-.63-.68-.12-1.41-.18-2.19-.18z"/><path d="m419.727 300.21h2.91v20.79h-2.91z"/><path d="m416.154 300.21v2.52h-6.54v18.27h-2.91v-18.27h-6.54v-2.52z"/><path d="m393.066 312.3c.32.4.72.93 1.2 1.59.5.64 1.01 1.36 1.53 2.16.52.78 1.03 1.6 1.53 2.46.52.86.96 1.69 1.32 2.49h-3.18c-.4-.76-.84-1.53-1.32-2.31-.46-.78-.93-1.52-1.41-2.22-.48-.72-.96-1.39-1.44-2.01-.46-.62-.88-1.16-1.26-1.62-.26.02-.53.03-.81.03-.26 0-.53 0-.81 0h-2.61v8.13h-2.91v-20.49c.82-.2 1.73-.33 2.73-.39 1.02-.08 1.95-.12 2.79-.12 2.92 0 5.14.55 6.66 1.65 1.54 1.1 2.31 2.74 2.31 4.92 0 1.38-.37 2.56-1.11 3.54-.72.98-1.79 1.71-3.21 2.19zm-4.41-9.75c-1.24 0-2.19.03-2.85.09v7.83h2.07c1 0 1.9-.05 2.7-.15s1.47-.29 2.01-.57c.56-.28.99-.67 1.29-1.17.3-.52.45-1.2.45-2.04 0-.78-.15-1.43-.45-1.95s-.71-.93-1.23-1.23c-.5-.3-1.1-.51-1.8-.63-.68-.12-1.41-.18-2.19-.18z"/><path d="m358.207 310.59c0-1.78.26-3.35.78-4.71.54-1.36 1.26-2.49 2.16-3.39.92-.92 1.98-1.61 3.18-2.07 1.22-.46 2.51-.69 3.87-.69 1.34 0 2.6.23 3.78.69 1.2.46 2.25 1.15 3.15 2.07.9.9 1.61 2.03 2.13 3.39.54 1.36.81 2.93.81 4.71s-.27 3.35-.81 4.71c-.52 1.36-1.23 2.5-2.13 3.42-.9.9-1.95 1.58-3.15 2.04-1.18.46-2.44.69-3.78.69-1.36 0-2.65-.23-3.87-.69-1.2-.46-2.26-1.14-3.18-2.04-.9-.92-1.62-2.06-2.16-3.42-.52-1.36-.78-2.93-.78-4.71zm3.06 0c0 1.26.16 2.41.48 3.45.32 1.02.77 1.89 1.35 2.61.6.72 1.32 1.28 2.16 1.68.86.38 1.82.57 2.88.57s2.01-.19 2.85-.57c.84-.4 1.55-.96 2.13-1.68.6-.72 1.06-1.59 1.38-2.61.32-1.04.48-2.19.48-3.45s-.16-2.4-.48-3.42c-.32-1.04-.78-1.92-1.38-2.64-.58-.72-1.29-1.27-2.13-1.65-.84-.4-1.79-.6-2.85-.6s-2.02.2-2.88.6c-.84.38-1.56.93-2.16 1.65-.58.72-1.03 1.6-1.35 2.64-.32 1.02-.48 2.16-.48 3.42z"/><path d="m347.41 318.93c3.04 0 4.56-1.04 4.56-3.12 0-.64-.14-1.18-.42-1.62-.26-.46-.62-.85-1.08-1.17-.46-.34-.99-.63-1.59-.87-.58-.24-1.2-.48-1.86-.72-.76-.26-1.48-.55-2.16-.87-.68-.34-1.27-.73-1.77-1.17-.5-.46-.9-1-1.2-1.62-.28-.62-.42-1.37-.42-2.25 0-1.82.62-3.24 1.86-4.26s2.95-1.53 5.13-1.53c1.26 0 2.4.14 3.42.42 1.04.26 1.8.55 2.28.87l-.93 2.37c-.42-.26-1.05-.51-1.89-.75-.82-.26-1.78-.39-2.88-.39-.56 0-1.08.06-1.56.18s-.9.3-1.26.54-.65.55-.87.93c-.2.36-.3.79-.3 1.29 0 .56.11 1.03.33 1.41s.53.72.93 1.02c.4.28.86.54 1.38.78.54.24 1.13.48 1.77.72.9.36 1.72.72 2.46 1.08.76.36 1.41.79 1.95 1.29.56.5.99 1.1 1.29 1.8.3.68.45 1.51.45 2.49 0 1.82-.67 3.22-2.01 4.2-1.32.98-3.19 1.47-5.61 1.47-.82 0-1.58-.06-2.28-.18-.68-.1-1.29-.22-1.83-.36-.54-.16-1.01-.32-1.41-.48-.38-.18-.68-.33-.9-.45l.87-2.4c.46.26 1.16.55 2.1.87s2.09.48 3.45.48z"/></g><path clip-rule="evenodd" d="m661.757 82.5h127.743c1.657 0 3 1.3431 3 3s-1.343 3-3 3h-125.257l-37 37h-48.243c-1.657 0-3-1.343-3-3s1.343-3 3-3h45.757z" fill="#00f0b3" fill-rule="evenodd"/></svg>