<svg fill="none" height="592" viewBox="0 0 271 592" width="271" xmlns="http://www.w3.org/2000/svg" xmlns:xlink="http://www.w3.org/1999/xlink"><linearGradient id="a"><stop offset="0" stop-color="#44ae3d"/><stop offset="1" stop-color="#b6d424" stop-opacity=".949"/></linearGradient><linearGradient id="b" gradientUnits="userSpaceOnUse" x1="248.589" x2="248.589" xlink:href="#a" y1="514.708" y2="500.776"/><linearGradient id="c" gradientUnits="userSpaceOnUse" x1="266.485" x2="266.485" xlink:href="#a" y1="514.708" y2="500.776"/><linearGradient id="d" gradientUnits="userSpaceOnUse" x1="55.9864" x2="55.9864" y1="591.957" y2="480"><stop offset="0" stop-color="#e7145b"/><stop offset=".489" stop-color="#e62063"/><stop offset="1" stop-color="#e74276"/></linearGradient><linearGradient id="e" gradientUnits="userSpaceOnUse" x1="74.0121" x2="74.0121" xlink:href="#a" y1="506.488" y2="489.094"/><linearGradient id="f" gradientUnits="userSpaceOnUse" x1="74.7888" x2="74.7888" xlink:href="#a" y1="509.369" y2="490.647"/><linearGradient id="g" gradientUnits="userSpaceOnUse" x1="46.9088" x2="46.9088" xlink:href="#a" y1="509.369" y2="487.055"/><linearGradient id="h" gradientUnits="userSpaceOnUse" x1="48.4137" x2="48.4137" xlink:href="#a" y1="508.301" y2="487.055"/><path d="m110.94 79.7418c-9.809 0-17.8545-7.9873-17.8545-17.883s7.9745-17.8829 17.8545-17.8829c9.881 0 17.855 7.9872 17.855 17.8829s-7.974 17.883-17.855 17.883zm0-28.4148c-5.787 0-10.515 4.7358-10.515 10.5318 0 5.7961 4.728 10.5319 10.515 10.5319s10.516-4.7358 10.516-10.5319c0-5.796-4.729-10.5318-10.516-10.5318z" fill="#f00"/><path d="m170.645 80.8727c-.141 0-.353 0-.494 0l-27.1-3.5342c-.988-.1414-1.835-.6361-2.399-1.4137-.565-.7775-.847-1.7671-.706-2.686l3.529-27.1426c.282-1.9792 2.117-3.4635 4.093-3.1808l27.1 3.5342c.988.1414 1.835.6362 2.399 1.4137.565.7775.847 1.7671.706 2.686l-3.529 27.1426c-.211 1.8378-1.764 3.1808-3.599 3.1808zm-22.936-10.3905 19.76 2.6153 2.612-19.7916-19.761-2.6153z" fill="#ff5ddc"/><g fill="#027fe1"><path d="m111.434 35.0698c-.211 0-.494 0-.776-.0707-1.976-.4241-3.246-2.3325-2.823-4.3117l5.787-27.77845c.424-1.979126 2.329-3.251424 4.305-2.8273253 1.976.4240983 3.246 2.3325453 2.823 4.3116753l-5.787 27.7785c-.282 1.6964-1.835 2.898-3.529 2.898z"/><path d="m111.434 35.0698c-.211 0-.494 0-.776-.0707-1.976-.4241-3.246-2.3325-2.823-4.3117l5.787-27.77845c.424-1.979126 2.329-3.251424 4.305-2.8273253 1.976.4240983 3.246 2.3325453 2.823 4.3116753l-5.787 27.7785c-.282 1.6964-1.835 2.898-3.529 2.898z"/><path d="m128.231 24.0431c-.212 0-.494 0-.777-.0707l-27.7344-5.796c-1.976-.4241-3.2463-2.3326-2.8229-4.3117.4235-1.9792 2.3289-3.2515 4.3053-2.8274l27.734 5.7961c1.976.4241 3.247 2.3325 2.823 4.3117-.353 1.6964-1.835 2.898-3.528 2.898z"/></g><path d="m147.285 33.0901c-.917 0-1.764-.3534-2.399-.9188-.988-.8482-1.412-2.1912-1.129-3.4635l5.01-23.8908c.282-1.27229 1.2-2.33253 2.4-2.68594 1.27-.4241 2.611-.14137 3.599.70683l18.278 16.11571c.988.8482 1.412 2.1911 1.129 3.4634-.282 1.2723-1.199 2.3326-2.399 2.7567l-23.289 7.7044c-.423.1413-.847.212-1.2.212zm7.269-20.6394-2.399 11.5213 11.221-3.7461z" fill="#8aee49"/><path d="m33.6545 131.56c-3.8816 0-7.891 3.035-9.0201 6.781l-22.64952 78.812c-1.058595 3.747-1.98486329 9.962-1.98486261 13.85l.00001555 88.929c.00000068 3.887 3.17578706 7.068 7.05728706 7.068h256.88568c3.881 0 7.057-3.181 7.057-7.068v-88.509c0-3.888-.926-10.104-1.985-13.85l-22.936-79.232c-1.059-3.746-5.139-6.781-9.02-6.781h-13.586c.541 1.865 1.057 3.763 1.522 5.721.632 2.638 1.041 5.021 1.323 8.416h.155c3.881 0 7.961 3.034 9.02 6.781l14.754 50.892c1.059 3.746-1.257 6.781-5.138 6.781l-219.2837-.287c-3.8815 0-6.2016-3.035-5.0724-6.781l14.5336-50.605c1.0585-3.746 5.1606-6.781 9.0421-6.781h.1544c.2464-2.526.6387-4.569 1.2571-7.356.5095-2.296 1.0719-4.56 1.7202-6.781zm112.8505 124.756h11.005v33.133h-11.005zm14.754 0h11.005v14.689h18.415v18.444h-29.42zm-113.9751 14.623h29.42v11.022h-18.4151v3.755h18.4151v3.667h-29.42zm33.1031 0h29.42v3.667h-18.4151v11.11h18.4151v3.667h-29.42zm-66.2062.066h29.4421v3.689h-18.4372v14.755h-11.0049zm99.2212 0h29.442v18.444h-29.442v-11.022h18.437v-3.667h-18.437zm80.96 0h29.42v18.444h-29.42zm33.103 0h11.005v3.689h7.344v-3.689h11.005v3.689h-3.683v3.667h-3.661v3.667h3.661v3.688h3.683v3.667h-11.005v-3.667h-7.344v3.667h-11.005v-3.667h3.661v-3.688h3.661v-3.667h-3.661v-3.667h-3.661zm-169.1762 3.689v3.667h7.344v-3.667zm113.9752 0v11.022h7.344v-11.022zm33.103 0v11.022h7.344v-11.022zm-80.872 7.334v3.688h7.344v-3.688z" fill="#fff"/><path d="m224.139 160.391c-.282-13.218-.635-17.388-1.835-22.477-4.163-17.388-11.15-30.747-21.665-41.2085-14.044-13.9953-30.77-15.2676-50.813-3.8169l-5.575 3.1807s-18.42-.212-19.972-1.3429c-1.059-.7069-4.093-2.4033-6.775-3.7463-13.621-6.7856-25.8298-7.5631-36.6274-2.2618-14.538 7.139-27.3117 26.8597-32.6046 50.2557-1.4821 6.715-1.6232 8.836-1.5526 26.012.0705 19.296.4234 22.548 3.2463 28.132 2.5406 5.16 6.4221 8.552 12.1385 10.814 9.2451 3.605 24.7711-6.291 37.5448-24.032l4.305-5.938h62.88l4.305 5.938c10.092 13.995 24.348 24.951 32.464 24.951 6.704 0 13.832-4.948 17.29-12.157 3.035-6.221 3.74-12.935 3.246-32.303zm-111.999-25.304h-9.527v9.542c0 2.969-2.47 5.443-5.4341 5.443s-5.4341-2.474-5.4341-5.443v-9.542h-9.5273c-2.9641 0-5.4342-2.474-5.4342-5.443s2.4701-5.443 5.4342-5.443h9.5273v-9.542c0-2.969 2.47-5.443 5.4341-5.443s5.4341 2.474 5.4341 5.443v9.542h9.527c2.964 0 5.434 2.474 5.434 5.443-.07 3.039-2.47 5.443-5.434 5.443zm70.15-29.829c4.587 0 8.327 3.746 8.327 8.341 0 4.594-3.74 8.34-8.327 8.34-4.588 0-8.328-3.746-8.328-8.34.071-4.595 3.74-8.341 8.328-8.341zm-27.03 16.116c0-4.594 3.741-8.341 8.328-8.341s8.327 3.747 8.327 8.341-3.74 8.341-8.327 8.341-8.328-3.747-8.328-8.341zm17.291 28.203c-4.588 0-8.328-3.747-8.328-8.341s3.74-8.341 8.328-8.341c4.587 0 8.327 3.747 8.327 8.341s-3.74 8.341-8.327 8.341zm17.502-8.341c-4.588 0-8.328-3.746-8.328-8.341 0-4.594 3.74-8.34 8.328-8.34 4.587 0 8.327 3.746 8.327 8.34 0 4.665-3.74 8.341-8.327 8.341z" fill="#fff"/><path d="m115.7 452h-14.85c-1 0-1.7-.3-2.1-.9-.4-.7-.4-1.5 0-2.4l23.25-46.05-22.5-43.8c-.4-.8-.4-1.55 0-2.25s1.1-1.05 2.1-1.05h14.4c2.5 0 4.15 1.05 4.95 3.15l14.25 32.25h.6l14.1-32.25c1-2.1 2.6-3.15 4.8-3.15h14.7c1 0 1.7.4 2.1 1.2.5.7.55 1.45.15 2.25l-22.8 43.65 23.25 45.9c.5 1 .55 1.85.15 2.55-.4.6-1.15.9-2.25.9h-15c-2.1 0-3.55-1-4.35-3l-14.85-32.4h-.6l-15 32.4c-.9 2-2.4 3-4.5 3z" fill="#3b4e62"/><g fill="#303441"><path d="m162.361 518.252h-10.761l-10.922 22.734c-.178.389-.583.648-1.019.648-.632 0-1.133-.518-1.133-1.133v-22.265h-9.369v52.701h9.369v-21.116c0-.615.501-1.132 1.133-1.132.436 0 .841.258 1.019.663l10.016 21.585h10.938l-12.669-25.776z"/><path d="m244.075 518.252h9.013v52.685h-9.013z"/><path d="m261.971 518.252h9.029v52.685h-9.029z"/></g><path d="m253.104 509.919c0 2.653-2.023 4.789-4.531 4.789-2.492 0-4.514-2.136-4.514-4.789v-4.353c0-2.637 2.022-4.79 4.514-4.79 2.508 0 4.531 2.153 4.531 4.79z" fill="url(#b)"/><path d="m271 509.919c0 2.653-2.023 4.789-4.515 4.789-2.508 0-4.53-2.136-4.53-4.789v-4.353c0-2.637 2.022-4.79 4.53-4.79 2.492 0 4.515 2.153 4.515 4.79z" fill="url(#c)"/><path d="m191.276 554.271v-36.019h9.175v40.712s0 11.941-15.793 11.941c-15.777 0-15.777-11.844-15.777-11.844v-40.825h9.175v36.035s-.582 7.67 6.602 7.67c7.201 0 6.618-7.67 6.618-7.67z" fill="#303441"/><path clip-rule="evenodd" d="m237.343 554.886c0 16.828-12.912 16.019-12.912 16.019l-17.848.032v-52.685c2.8 0 5.502.016 8.026 0 12.12-.065 21.78 2.67 21.78 13.349 0 10.696-7.411 11.359-7.411 11.359s8.365-.275 8.365 11.926zm-21.892-14.854s11.715 1.699 11.715-7.395c0-9.078-11.635-7.362-11.715-7.282zm12.249 15.631c0-10.551-12.023-8.269-12.023-8.269v14.692s12.023 3.237 12.023-6.423z" fill="#303441" fill-rule="evenodd"/><path clip-rule="evenodd" d="m111.973 495.793v80.371c0 5.599-2.945 10.534-7.363 13.349v-23.042c1.295-.323 2.266-1.504 2.266-2.912 0-1.651-1.343-2.994-2.994-2.994-1.65 0-2.993 1.343-2.993 2.994 0 1.408.971 2.589 2.265 2.912v23.851c-1.78.89-3.7539 1.44-5.8251 1.602v-18.171c1.2945-.324 2.2654-1.505 2.2654-2.913 0-1.65-1.343-2.993-2.9935-2.993s-2.9935 1.343-2.9935 2.993c0 1.408.9709 2.589 2.2653 2.913v18.204h-6.1488v-10.923c1.2945-.323 2.2654-1.504 2.2654-2.912 0-1.651-1.343-2.994-2.9935-2.994s-2.9935 1.343-2.9935 2.994c0 1.408.9709 2.589 2.2654 2.912v10.923h-72.4749c-6.71514 0-12.47559-4.24-14.75711-10.194h16.94151c.3237 1.31 1.4887 2.265 2.8964 2.265 1.6505 0 2.9935-1.327 2.9935-2.994 0-1.65-1.343-2.993-2.9935-2.993-1.4077 0-2.5727.971-2.8964 2.265h-17.410764c-.275077-.987-.453068-2.006-.5177924-3.074h8.9319364l1.45632-1.456 5.8413-5.826h1.699c.3237 1.311 1.4887 2.266 2.8964 2.266 1.6505 0 2.9935-1.327 2.9935-2.994 0-1.65-1.343-2.993-2.9935-2.993-1.4077 0-2.5727.971-2.8964 2.265h-2.0873l-7.37857 7.282h-8.51123v-79.983c0-8.69 7.11966-15.793 15.7927-15.793h79.7563v26.941c-1.2945.324-2.2653 1.505-2.2653 2.897 0 1.666 1.343 2.993 2.9935 2.993 1.6504 0 2.9935-1.327 2.9935-2.993 0-1.392-.9709-2.573-2.2654-2.897v-26.925c8.3007.437 14.9677 7.363 14.9677 15.777zm-52.4268 10.695 28.9641-15.841s-23.0742 15.502-27.4269 17.896c12.7669 3.593 24.1259-5.032 27.4269-17.896-30.8249-7.783-28.9641 15.841-28.9641 15.841zm-5.6148 2.864-12.8154-22.297s12.152 17.896 13.9642 21.246c2.8317-9.741-4.1261-18.657-13.9642-21.246-6.1488 23.576 12.8154 22.297 12.8154 22.297zm40.76 26.1c0-8.187-6.6342-14.821-14.8056-14.821-4.9514 0-9.3365 2.443-12.0387 6.181 2.2168-3.884 6.1488-6.651 10.7442-7.314-2.3301-4.223-6.8122-7.071-11.9578-7.071-4.466 0-8.4303 2.136-10.9222 5.453-2.4757-3.317-6.44-5.453-10.906-5.453-4.9676 0-9.3203 2.653-11.7151 6.634 5.5339.356 10.2264 3.754 12.4594 8.544 2.4919-2.8 6.1326-4.547 10.1617-4.547 7.5404 0 13.6406 6.1 13.6406 13.64v.518c-.2751-7.298-6.2782-13.139-13.6406-13.139s-13.3493 5.841-13.6244 13.139c-.0108-.172-.0162-.345-.0162-.518 0-3.268 1.1489-6.278 3.0744-8.624-2.5081-4.644-7.4109-7.783-13.0419-7.783-8.1876 0-14.8219 6.634-14.8219 14.805 0 6.457 4.1262 11.942 9.8705 13.981-2.4595 2.556-3.9644 6.019-3.9644 9.854 0 7.848 6.3754 14.223 14.2393 14.223 7.6051 0 13.8186-5.971 14.207-13.479.0108.249.0162.497.0162.745 0 6.424-4.2556 11.86-10.1132 13.624 1.1165 6.165 7.0388 10.858 14.1746 10.858 7.686 0 13.9642-5.453 14.3688-12.298 1.2459.356 2.5728.55 3.932.55 7.864 0 14.2393-6.375 14.2393-14.223 0-3.123-1.0032-6.003-2.7023-8.333-1.2944.372-2.6698.566-4.0938.566-3.0096 0-5.7928-.89-8.139-2.427 1.9902.987 4.207 1.537 6.5695 1.537 8.1714 0 14.8056-6.634 14.8056-14.822z" fill="url(#d)" fill-rule="evenodd"/><path d="m88.5103 490.647c-30.8249-7.783-28.9641 15.841-28.9641 15.841z" fill="url(#e)"/><path d="m88.5103 490.647s-23.0741 15.502-27.4268 17.896c12.7668 3.593 24.1259-5.032 27.4268-17.896z" fill="url(#f)"/><path d="m53.9314 509.352-12.8154-22.297c-6.1488 23.576 12.8154 22.297 12.8154 22.297z" fill="url(#g)"/><path d="m41.116 487.055s12.152 17.896 13.9643 21.246c2.8316-9.741-4.1262-18.657-13.9643-21.246z" fill="url(#h)"/></svg>