<svg fill="none" height="389" viewBox="0 0 389 389" width="389" xmlns="http://www.w3.org/2000/svg" xmlns:xlink="http://www.w3.org/1999/xlink"><clipPath id="a"><path d="m0 0h389v389h-389z"/></clipPath><g clip-path="url(#a)"><path d="m389 0h-389v389h389z" fill="#fff"/><g fill="#000"><path d="m129.667 23.5758h-11.788v11.7878h11.788z"/><path d="m153.242 23.5758h-11.787v11.7878h11.787z"/><path d="m188.606 23.5758h-11.788v11.7878h11.788z"/><path d="m200.394 23.5758h-11.788v11.7878h11.788z"/><path d="m212.182 23.5758h-11.788v11.7878h11.788z"/><path d="m235.758 23.5758h-11.788v11.7878h11.788z"/><path d="m247.545 23.5758h-11.788v11.7878h11.788z"/><path d="m129.667 35.3636h-11.788v11.7879h11.788z"/><path d="m165.03 35.3636h-11.788v11.7879h11.788z"/><path d="m188.606 35.3636h-11.788v11.7879h11.788z"/><path d="m200.394 35.3636h-11.788v11.7879h11.788z"/><path d="m212.182 35.3636h-11.788v11.7879h11.788z"/><path d="m235.758 35.3636h-11.788v11.7879h11.788z"/><path d="m247.545 35.3636h-11.788v11.7879h11.788z"/><path d="m259.333 35.3636h-11.788v11.7879h11.788z"/><path d="m271.121 35.3636h-11.788v11.7879h11.788z"/><path d="m129.667 47.1515h-11.788v11.7879h11.788z"/><path d="m153.242 47.1515h-11.787v11.7879h11.787z"/><path d="m188.606 47.1515h-11.788v11.7879h11.788z"/><path d="m200.394 47.1515h-11.788v11.7879h11.788z"/><path d="m271.121 47.1515h-11.788v11.7879h11.788z"/><path d="m153.242 58.9394h-11.787v11.7879h11.787z"/><path d="m165.03 58.9394h-11.788v11.7879h11.788z"/><path d="m200.394 58.9394h-11.788v11.7879h11.788z"/><path d="m212.182 58.9394h-11.788v11.7879h11.788z"/><path d="m235.758 58.9394h-11.788v11.7879h11.788z"/><path d="m259.333 58.9394h-11.788v11.7879h11.788z"/><path d="m271.121 58.9394h-11.788v11.7879h11.788z"/><path d="m129.667 70.7273h-11.788v11.7879h11.788z"/><path d="m141.454 70.7273h-11.787v11.7879h11.787z"/><path d="m165.03 70.7273h-11.788v11.7879h11.788z"/><path d="m188.606 70.7273h-11.788v11.7879h11.788z"/><path d="m212.182 70.7273h-11.788v11.7879h11.788z"/><path d="m247.545 70.7273h-11.788v11.7879h11.788z"/><path d="m259.333 70.7273h-11.788v11.7879h11.788z"/><path d="m271.121 70.7273h-11.788v11.7879h11.788z"/><path d="m165.03 82.5152h-11.788v11.7878h11.788z"/><path d="m188.606 82.5152h-11.788v11.7878h11.788z"/><path d="m200.394 82.5152h-11.788v11.7878h11.788z"/><path d="m129.667 94.303h-11.788v11.788h11.788z"/><path d="m153.242 94.303h-11.787v11.788h11.787z"/><path d="m176.818 94.303h-11.788v11.788h11.788z"/><path d="m200.394 94.303h-11.788v11.788h11.788z"/><path d="m223.97 94.303h-11.788v11.788h11.788z"/><path d="m247.545 94.303h-11.788v11.788h11.788z"/><path d="m271.121 94.303h-11.788v11.788h11.788z"/><path d="m153.242 106.091h-11.787v11.788h11.787z"/><path d="m165.03 106.091h-11.788v11.788h11.788z"/><path d="m176.818 106.091h-11.788v11.788h11.788z"/><path d="m200.394 106.091h-11.788v11.788h11.788z"/><path d="m259.333 106.091h-11.788v11.788h11.788z"/><path d="m271.121 106.091h-11.788v11.788h11.788z"/><path d="m35.3636 117.879h-11.7879v11.788h11.7879z"/><path d="m70.7273 117.879h-11.7878v11.788h11.7878z"/><path d="m82.5149 117.879h-11.7878v11.788h11.7878z"/><path d="m94.303 117.879h-11.7879v11.788h11.7879z"/><path d="m106.091 117.879h-11.7883v11.788h11.7883z"/><path d="m117.879 117.879h-11.788v11.788h11.788z"/><path d="m129.667 117.879h-11.788v11.788h11.788z"/><path d="m141.454 117.879h-11.787v11.788h11.787z"/><path d="m153.242 117.879h-11.787v11.788h11.787z"/><path d="m165.03 117.879h-11.788v11.788h11.788z"/><path d="m188.606 117.879h-11.788v11.788h11.788z"/><path d="m200.394 117.879h-11.788v11.788h11.788z"/><path d="m212.182 117.879h-11.788v11.788h11.788z"/><path d="m223.97 117.879h-11.788v11.788h11.788z"/><path d="m235.758 117.879h-11.788v11.788h11.788z"/><path d="m271.121 117.879h-11.788v11.788h11.788z"/><path d="m282.909 117.879h-11.788v11.788h11.788z"/><path d="m318.273 117.879h-11.788v11.788h11.788z"/><path d="m341.848 117.879h-11.787v11.788h11.787z"/><path d="m353.637 117.879h-11.788v11.788h11.788z"/><path d="m365.424 117.879h-11.788v11.788h11.788z"/><path d="m35.3636 129.667h-11.7879v11.788h11.7879z"/><path d="m47.1516 129.667h-11.7878v11.788h11.7878z"/><path d="m58.9392 129.667h-11.7878v11.788h11.7878z"/><path d="m70.7273 129.667h-11.7878v11.788h11.7878z"/><path d="m94.303 129.667h-11.7879v11.788h11.7879z"/><path d="m153.242 129.667h-11.787v11.788h11.787z"/><path d="m165.03 129.667h-11.788v11.788h11.788z"/><path d="m176.818 129.667h-11.788v11.788h11.788z"/><path d="m200.394 129.667h-11.788v11.788h11.788z"/><path d="m235.758 129.667h-11.788v11.788h11.788z"/><path d="m247.545 129.667h-11.788v11.788h11.788z"/><path d="m259.333 129.667h-11.788v11.788h11.788z"/><path d="m318.273 129.667h-11.788v11.788h11.788z"/><path d="m341.848 129.667h-11.787v11.788h11.787z"/><path d="m353.637 129.667h-11.788v11.788h11.788z"/><path d="m58.9392 141.455h-11.7878v11.787h11.7878z"/><path d="m70.7273 141.455h-11.7878v11.787h11.7878z"/><path d="m106.091 141.455h-11.7883v11.787h11.7883z"/><path d="m165.03 141.455h-11.788v11.787h11.788z"/><path d="m176.818 141.455h-11.788v11.787h11.788z"/><path d="m200.394 141.455h-11.788v11.787h11.788z"/><path d="m235.758 141.455h-11.788v11.787h11.788z"/><path d="m294.697 141.455h-11.788v11.787h11.788z"/><path d="m318.273 141.455h-11.788v11.787h11.788z"/><path d="m341.848 141.455h-11.787v11.787h11.787z"/><path d="m35.3636 153.242h-11.7879v11.788h11.7879z"/><path d="m82.5149 153.242h-11.7878v11.788h11.7878z"/><path d="m117.879 153.242h-11.788v11.788h11.788z"/><path d="m129.667 153.242h-11.788v11.788h11.788z"/><path d="m141.454 153.242h-11.787v11.788h11.787z"/><path d="m153.242 153.242h-11.787v11.788h11.787z"/><path d="m165.03 153.242h-11.788v11.788h11.788z"/><path d="m176.818 153.242h-11.788v11.788h11.788z"/><path d="m200.394 153.242h-11.788v11.788h11.788z"/><path d="m212.182 153.242h-11.788v11.788h11.788z"/><path d="m235.758 153.242h-11.788v11.788h11.788z"/><path d="m259.333 153.242h-11.788v11.788h11.788z"/><path d="m271.121 153.242h-11.788v11.788h11.788z"/><path d="m306.485 153.242h-11.788v11.788h11.788z"/><path d="m330.06 153.242h-11.788v11.788h11.788z"/><path d="m365.424 153.242h-11.788v11.788h11.788z"/><path d="m35.3636 165.03h-11.7879v11.788h11.7879z"/><path d="m47.1516 165.03h-11.7878v11.788h11.7878z"/><path d="m70.7273 165.03h-11.7878v11.788h11.7878z"/><path d="m94.303 165.03h-11.7879v11.788h11.7879z"/><path d="m106.091 165.03h-11.7883v11.788h11.7883z"/><path d="m117.879 165.03h-11.788v11.788h11.788z"/><path d="m153.242 165.03h-11.787v11.788h11.787z"/><path d="m188.606 165.03h-11.788v11.788h11.788z"/><path d="m200.394 165.03h-11.788v11.788h11.788z"/><path d="m223.97 165.03h-11.788v11.788h11.788z"/><path d="m247.545 165.03h-11.788v11.788h11.788z"/><path d="m271.121 165.03h-11.788v11.788h11.788z"/><path d="m294.697 165.03h-11.788v11.788h11.788z"/><path d="m306.485 165.03h-11.788v11.788h11.788z"/><path d="m365.424 165.03h-11.788v11.788h11.788z"/><path d="m35.3636 176.818h-11.7879v11.788h11.7879z"/><path d="m47.1516 176.818h-11.7878v11.788h11.7878z"/><path d="m58.9392 176.818h-11.7878v11.788h11.7878z"/><path d="m82.5149 176.818h-11.7878v11.788h11.7878z"/><path d="m94.303 176.818h-11.7879v11.788h11.7879z"/><path d="m165.03 176.818h-11.788v11.788h11.788z"/><path d="m235.758 176.818h-11.788v11.788h11.788z"/><path d="m247.545 176.818h-11.788v11.788h11.788z"/><path d="m282.909 176.818h-11.788v11.788h11.788z"/><path d="m294.697 176.818h-11.788v11.788h11.788z"/><path d="m306.485 176.818h-11.788v11.788h11.788z"/><path d="m318.273 176.818h-11.788v11.788h11.788z"/><path d="m330.06 176.818h-11.788v11.788h11.788z"/><path d="m341.848 176.818h-11.787v11.788h11.787z"/><path d="m353.637 176.818h-11.788v11.788h11.788z"/><path d="m365.424 176.818h-11.788v11.788h11.788z"/><path d="m35.3636 188.606h-11.7879v11.788h11.7879z"/><path d="m47.1516 188.606h-11.7878v11.788h11.7878z"/><path d="m58.9392 188.606h-11.7878v11.788h11.7878z"/><path d="m94.303 188.606h-11.7879v11.788h11.7879z"/><path d="m106.091 188.606h-11.7883v11.788h11.7883z"/><path d="m153.242 188.606h-11.787v11.788h11.787z"/><path d="m176.818 188.606h-11.788v11.788h11.788z"/><path d="m200.394 188.606h-11.788v11.788h11.788z"/><path d="m212.182 188.606h-11.788v11.788h11.788z"/><path d="m235.758 188.606h-11.788v11.788h11.788z"/><path d="m259.333 188.606h-11.788v11.788h11.788z"/><path d="m282.909 188.606h-11.788v11.788h11.788z"/><path d="m294.697 188.606h-11.788v11.788h11.788z"/><path d="m306.485 188.606h-11.788v11.788h11.788z"/><path d="m341.848 188.606h-11.787v11.788h11.787z"/><path d="m365.424 188.606h-11.788v11.788h11.788z"/><path d="m58.9392 200.394h-11.7878v11.788h11.7878z"/><path d="m82.5149 200.394h-11.7878v11.788h11.7878z"/><path d="m117.879 200.394h-11.788v11.788h11.788z"/><path d="m129.667 200.394h-11.788v11.788h11.788z"/><path d="m141.454 200.394h-11.787v11.788h11.787z"/><path d="m176.818 200.394h-11.788v11.788h11.788z"/><path d="m188.606 200.394h-11.788v11.788h11.788z"/><path d="m200.394 200.394h-11.788v11.788h11.788z"/><path d="m259.333 200.394h-11.788v11.788h11.788z"/><path d="m271.121 200.394h-11.788v11.788h11.788z"/><path d="m341.848 200.394h-11.787v11.788h11.787z"/><path d="m365.424 200.394h-11.788v11.788h11.788z"/><path d="m35.3636 212.182h-11.7879v11.788h11.7879z"/><path d="m58.9392 212.182h-11.7878v11.788h11.7878z"/><path d="m70.7273 212.182h-11.7878v11.788h11.7878z"/><path d="m82.5149 212.182h-11.7878v11.788h11.7878z"/><path d="m94.303 212.182h-11.7879v11.788h11.7879z"/><path d="m106.091 212.182h-11.7883v11.788h11.7883z"/><path d="m129.667 212.182h-11.788v11.788h11.788z"/><path d="m141.454 212.182h-11.787v11.788h11.787z"/><path d="m153.242 212.182h-11.787v11.788h11.787z"/><path d="m212.182 212.182h-11.788v11.788h11.788z"/><path d="m271.121 212.182h-11.788v11.788h11.788z"/><path d="m306.485 212.182h-11.788v11.788h11.788z"/><path d="m330.06 212.182h-11.788v11.788h11.788z"/><path d="m35.3636 223.97h-11.7879v11.788h11.7879z"/><path d="m47.1516 223.97h-11.7878v11.788h11.7878z"/><path d="m117.879 223.97h-11.788v11.788h11.788z"/><path d="m141.454 223.97h-11.787v11.788h11.787z"/><path d="m176.818 223.97h-11.788v11.788h11.788z"/><path d="m212.182 223.97h-11.788v11.788h11.788z"/><path d="m235.758 223.97h-11.788v11.788h11.788z"/><path d="m247.545 223.97h-11.788v11.788h11.788z"/><path d="m259.333 223.97h-11.788v11.788h11.788z"/><path d="m271.121 223.97h-11.788v11.788h11.788z"/><path d="m318.273 223.97h-11.788v11.788h11.788z"/><path d="m341.848 223.97h-11.787v11.788h11.787z"/><path d="m353.637 223.97h-11.788v11.788h11.788z"/><path d="m35.3636 235.758h-11.7879v11.787h11.7879z"/><path d="m47.1516 235.758h-11.7878v11.787h11.7878z"/><path d="m70.7273 235.758h-11.7878v11.787h11.7878z"/><path d="m106.091 235.758h-11.7883v11.787h11.7883z"/><path d="m117.879 235.758h-11.788v11.787h11.788z"/><path d="m129.667 235.758h-11.788v11.787h11.788z"/><path d="m153.242 235.758h-11.787v11.787h11.787z"/><path d="m188.606 235.758h-11.788v11.787h11.788z"/><path d="m200.394 235.758h-11.788v11.787h11.788z"/><path d="m212.182 235.758h-11.788v11.787h11.788z"/><path d="m259.333 235.758h-11.788v11.787h11.788z"/><path d="m271.121 235.758h-11.788v11.787h11.788z"/><path d="m294.697 235.758h-11.788v11.787h11.788z"/><path d="m318.273 235.758h-11.788v11.787h11.788z"/><path d="m330.06 235.758h-11.788v11.787h11.788z"/><path d="m365.424 235.758h-11.788v11.787h11.788z"/><path d="m35.3636 247.545h-11.7879v11.788h11.7879z"/><path d="m47.1516 247.545h-11.7878v11.788h11.7878z"/><path d="m70.7273 247.545h-11.7878v11.788h11.7878z"/><path d="m82.5149 247.545h-11.7878v11.788h11.7878z"/><path d="m94.303 247.545h-11.7879v11.788h11.7879z"/><path d="m117.879 247.545h-11.788v11.788h11.788z"/><path d="m153.242 247.545h-11.787v11.788h11.787z"/><path d="m165.03 247.545h-11.788v11.788h11.788z"/><path d="m188.606 247.545h-11.788v11.788h11.788z"/><path d="m223.97 247.545h-11.788v11.788h11.788z"/><path d="m247.545 247.545h-11.788v11.788h11.788z"/><path d="m259.333 247.545h-11.788v11.788h11.788z"/><path d="m282.909 247.545h-11.788v11.788h11.788z"/><path d="m330.06 247.545h-11.788v11.788h11.788z"/><path d="m341.848 247.545h-11.787v11.788h11.787z"/><path d="m35.3636 259.333h-11.7879v11.788h11.7879z"/><path d="m47.1516 259.333h-11.7878v11.788h11.7878z"/><path d="m94.303 259.333h-11.7879v11.788h11.7879z"/><path d="m106.091 259.333h-11.7883v11.788h11.7883z"/><path d="m129.667 259.333h-11.788v11.788h11.788z"/><path d="m153.242 259.333h-11.787v11.788h11.787z"/><path d="m176.818 259.333h-11.788v11.788h11.788z"/><path d="m188.606 259.333h-11.788v11.788h11.788z"/><path d="m223.97 259.333h-11.788v11.788h11.788z"/><path d="m235.758 259.333h-11.788v11.788h11.788z"/><path d="m271.121 259.333h-11.788v11.788h11.788z"/><path d="m282.909 259.333h-11.788v11.788h11.788z"/><path d="m294.697 259.333h-11.788v11.788h11.788z"/><path d="m306.485 259.333h-11.788v11.788h11.788z"/><path d="m318.273 259.333h-11.788v11.788h11.788z"/><path d="m330.06 259.333h-11.788v11.788h11.788z"/><path d="m341.848 259.333h-11.787v11.788h11.787z"/><path d="m353.637 259.333h-11.788v11.788h11.788z"/><path d="m129.667 271.121h-11.788v11.788h11.788z"/><path d="m153.242 271.121h-11.787v11.788h11.787z"/><path d="m188.606 271.121h-11.788v11.788h11.788z"/><path d="m212.182 271.121h-11.788v11.788h11.788z"/><path d="m271.121 271.121h-11.788v11.788h11.788z"/><path d="m318.273 271.121h-11.788v11.788h11.788z"/><path d="m330.06 271.121h-11.788v11.788h11.788z"/><path d="m129.667 282.909h-11.788v11.788h11.788z"/><path d="m141.454 282.909h-11.787v11.788h11.787z"/><path d="m153.242 282.909h-11.787v11.788h11.787z"/><path d="m188.606 282.909h-11.788v11.788h11.788z"/><path d="m212.182 282.909h-11.788v11.788h11.788z"/><path d="m223.97 282.909h-11.788v11.788h11.788z"/><path d="m247.545 282.909h-11.788v11.788h11.788z"/><path d="m259.333 282.909h-11.788v11.788h11.788z"/><path d="m271.121 282.909h-11.788v11.788h11.788z"/><path d="m294.697 282.909h-11.788v11.788h11.788z"/><path d="m318.273 282.909h-11.788v11.788h11.788z"/><path d="m330.06 282.909h-11.788v11.788h11.788z"/><path d="m129.667 294.697h-11.788v11.788h11.788z"/><path d="m153.242 294.697h-11.787v11.788h11.787z"/><path d="m176.818 294.697h-11.788v11.788h11.788z"/><path d="m188.606 294.697h-11.788v11.788h11.788z"/><path d="m212.182 294.697h-11.788v11.788h11.788z"/><path d="m235.758 294.697h-11.788v11.788h11.788z"/><path d="m247.545 294.697h-11.788v11.788h11.788z"/><path d="m259.333 294.697h-11.788v11.788h11.788z"/><path d="m271.121 294.697h-11.788v11.788h11.788z"/><path d="m318.273 294.697h-11.788v11.788h11.788z"/><path d="m353.637 294.697h-11.788v11.788h11.788z"/><path d="m365.424 294.697h-11.788v11.788h11.788z"/><path d="m129.667 306.485h-11.788v11.788h11.788z"/><path d="m141.454 306.485h-11.787v11.788h11.787z"/><path d="m165.03 306.485h-11.788v11.788h11.788z"/><path d="m188.606 306.485h-11.788v11.788h11.788z"/><path d="m223.97 306.485h-11.788v11.788h11.788z"/><path d="m247.545 306.485h-11.788v11.788h11.788z"/><path d="m259.333 306.485h-11.788v11.788h11.788z"/><path d="m271.121 306.485h-11.788v11.788h11.788z"/><path d="m282.909 306.485h-11.788v11.788h11.788z"/><path d="m294.697 306.485h-11.788v11.788h11.788z"/><path d="m306.485 306.485h-11.788v11.788h11.788z"/><path d="m318.273 306.485h-11.788v11.788h11.788z"/><path d="m330.06 306.485h-11.788v11.788h11.788z"/><path d="m353.637 306.485h-11.788v11.788h11.788z"/><path d="m365.424 306.485h-11.788v11.788h11.788z"/><path d="m129.667 318.273h-11.788v11.788h11.788z"/><path d="m141.454 318.273h-11.787v11.788h11.787z"/><path d="m165.03 318.273h-11.788v11.788h11.788z"/><path d="m176.818 318.273h-11.788v11.788h11.788z"/><path d="m200.394 318.273h-11.788v11.788h11.788z"/><path d="m212.182 318.273h-11.788v11.788h11.788z"/><path d="m223.97 318.273h-11.788v11.788h11.788z"/><path d="m235.758 318.273h-11.788v11.788h11.788z"/><path d="m247.545 318.273h-11.788v11.788h11.788z"/><path d="m271.121 318.273h-11.788v11.788h11.788z"/><path d="m282.909 318.273h-11.788v11.788h11.788z"/><path d="m365.424 318.273h-11.788v11.788h11.788z"/><path d="m176.818 330.061h-11.788v11.788h11.788z"/><path d="m188.606 330.061h-11.788v11.788h11.788z"/><path d="m212.182 330.061h-11.788v11.788h11.788z"/><path d="m223.97 330.061h-11.788v11.788h11.788z"/><path d="m235.758 330.061h-11.788v11.788h11.788z"/><path d="m259.333 330.061h-11.788v11.788h11.788z"/><path d="m282.909 330.061h-11.788v11.788h11.788z"/><path d="m306.485 330.061h-11.788v11.788h11.788z"/><path d="m318.273 330.061h-11.788v11.788h11.788z"/><path d="m341.848 330.061h-11.787v11.788h11.787z"/><path d="m353.637 330.061h-11.788v11.788h11.788z"/><path d="m365.424 330.061h-11.788v11.788h11.788z"/><path d="m141.454 341.848h-11.787v11.788h11.787z"/><path d="m165.03 341.848h-11.788v11.788h11.788z"/><path d="m188.606 341.848h-11.788v11.788h11.788z"/><path d="m200.394 341.848h-11.788v11.788h11.788z"/><path d="m223.97 341.848h-11.788v11.788h11.788z"/><path d="m294.697 341.848h-11.788v11.788h11.788z"/><path d="m306.485 341.848h-11.788v11.788h11.788z"/><path d="m330.06 341.848h-11.788v11.788h11.788z"/><path d="m341.848 341.848h-11.787v11.788h11.787z"/><path d="m365.424 341.848h-11.788v11.788h11.788z"/><path d="m129.667 353.636h-11.788v11.788h11.788z"/><path d="m141.454 353.636h-11.787v11.788h11.787z"/><path d="m259.333 353.636h-11.788v11.788h11.788z"/><path d="m271.121 353.636h-11.788v11.788h11.788z"/><path d="m294.697 353.636h-11.788v11.788h11.788z"/><path d="m318.273 353.636h-11.788v11.788h11.788z"/><path d="m330.06 353.636h-11.788v11.788h11.788z"/><path d="m93.7136 23.5758h-57.7606-12.3773v12.3772 57.7606 12.3774h12.3773 57.7606 12.3774v-12.3774-57.7606-12.3772zm0 70.1378h-57.7606v-57.7606h57.7606z"/><path d="m353.047 23.5758h-57.761-12.377v12.3772 57.7606 12.3774h12.377 57.761 12.377v-12.3774-57.7606-12.3772zm0 70.1378h-57.761v-57.7606h57.761z"/><path d="m93.7136 282.909h-57.7606-12.3773v12.377 57.761 12.377h12.3773 57.7606 12.3774v-12.377-57.761-12.377zm0 70.138h-57.7606v-57.761h57.7606z"/><path d="m82.515 47.1515h-35.3636v35.3637h35.3636z"/><path d="m341.849 47.1515h-35.364v35.3637h35.364z"/><path d="m82.515 306.485h-35.3636v35.364h35.3636z"/></g></g></svg>